<?xml version="1.0" encoding="UTF-8" standalone="no"?>
<!-- Created with Inkscape (http://www.inkscape.org/) -->

<svg
   width="48"
   height="48"
   viewBox="0 0 48 48"
   version="1.1"
   id="svg1"
   xml:space="preserve"
   xmlns="http://www.w3.org/2000/svg"
   xmlns:svg="http://www.w3.org/2000/svg"><defs
     id="defs1" /><g
     id="g97"
     transform="matrix(0.06244534,0,0,0.06244534,96.42102,-220.89238)"><path
       style="display:inline;fill:#f1c88e;fill-opacity:1;stroke:none;stroke-width:22.2173;stroke-dasharray:none;stroke-opacity:1"
       d="m -1293.7102,3619.6126 c 15.1874,0 66.2724,-8.1228 67.6531,-14.8918 1.3806,-6.7691 13.8068,-47.3832 13.8068,-47.3832 l 84.2212,-1.3538 13.8067,46.0293 95.2665,32.4914 42.80103,-23.0147 74.5564,55.506 -19.3294,47.3831 56.6077,89.3512 46.9429,14.8918 9.6648,94.7663 -40.0397,21.6609 -17.9487,100.1816 22.0907,37.9065 -63.511,86.6435 -37.2782,-12.1842 -81.45983,56.8598 -12.4261,52.7983 c 0,0 -82.8405,32.4914 -84.2212,27.0761 -1.3806,-5.4152 -27.6135,-40.6141 -27.6135,-40.6141 l -169.823,-28.4299 -34.5169,32.4913 -78.6985,-52.7984 8.2841,-40.6141 -9.6647,-18.9533 c 0,0 -106.9783,-147.1024 -61.74,-305.4365 42.411,-155.5067 202.5688,-210.3631 202.5688,-210.3631 z"
       id="path85" /><g
       id="g95"
       style="display:none"
       transform="matrix(-1.019848,0,0,1,-2334.454,14.136975)"><path
         d="m -874.41272,3986.3868 c -1.50477,-0.4531 -4.27392,-1.7743 -6.15367,-2.936 -3.55666,-2.1982 -131.73641,-132.2309 -170.04791,-172.5062 -12.0657,-12.6841 -39.5791,-40.8371 -61.1408,-62.5621 -21.5617,-21.725 -39.7482,-40.5686 -40.4143,-41.8747 -2.4403,-4.7844 -0.3476,-20.946 3.4061,-26.3051 0.6806,-0.9717 6.7048,-6.9538 13.3872,-13.2935 11.396,-10.8115 12.4015,-11.5267 16.2067,-11.5267 4.7145,0 9.6499,1.8682 14.2423,5.3911 1.7877,1.3714 23.5003,23.3239 48.2503,48.7835 24.75,25.4595 60.30661,61.823 79.01463,80.8077 18.70802,18.9848 52.45802,53.8423 75,77.4613 22.54198,23.6189 46.29633,48.4809 52.78745,55.2489 14.12931,14.7319 17.92706,21.4606 18.52403,32.8199 l 0.36853,7.0123 -5.20024,7.6975 c -2.86014,4.2336 -6.78271,8.9045 -8.71684,10.3797 -6.83048,5.2099 -21.33515,7.865 -29.51348,5.4024 z"
         style="fill:#e096cf;fill-opacity:1;stroke:#73659f;stroke-width:22;stroke-dasharray:none;stroke-opacity:1"
         id="path94" /><path
         style="fill:none;stroke:#73659f;stroke-width:22;stroke-dasharray:none;stroke-opacity:1"
         d="m -1071.879,3784.5406 47.5837,-47.5836"
         id="path95" /></g><g
       id="g96"
       transform="matrix(-1.019848,0,0,1,-2334.454,14.136975)"><path
         d="m -1227.5752,4272.2303 c -17.05,-5.7063 -36.9469,-12.7047 -44.2152,-15.552 -11.5028,-4.506 -13.7229,-5.7536 -17.1334,-9.6281 -5.5507,-6.3059 -6.245,-10.1325 -5.4859,-30.2364 l 0.6421,-17.0086 -5.3513,-2.7118 c -15.9726,-8.0939 -38.764,-24.6816 -54.3226,-39.5363 l -10.5869,-10.108 -16.611,5.7034 c -23.8423,8.1864 -24.2711,8.0772 -39.8009,-10.1334 -10.9011,-12.783 -30.4701,-38.9505 -34.6354,-46.3143 -3.3458,-5.9148 -8.0569,-12.859 -17.1552,-25.2866 -3.377,-4.6127 -4.2565,-6.7282 -4.6201,-11.112 -0.5906,-7.123 0.541,-9.339 12.8717,-25.2061 5.5499,-7.1415 10.4563,-13.6634 10.9033,-14.4931 0.5148,-0.9554 -0.8216,-6.2712 -3.6453,-14.5 -8.1458,-23.7385 -13.559,-47.8363 -15.1611,-67.4914 l -0.6928,-8.5 -13.5,-7.0398 c -21.5947,-11.2608 -24.6103,-15.393 -23.6894,-32.4602 0.7459,-13.8258 8.4702,-80.4601 9.8756,-85.1938 1.6054,-5.4073 6.4685,-10.7375 12.2429,-13.419 2.789,-1.2951 12.19,-4.0317 20.8912,-6.0814 l 15.8202,-3.7268 8.2408,-16.5395 c 9.4449,-18.9562 17.0013,-31.7834 30.2042,-51.2721 l 9.3032,-13.7326 -4.3505,-9.7674 c -2.3928,-5.3721 -6.4156,-14.2674 -8.9395,-19.7674 -5.3808,-11.7254 -5.9543,-17.1507 -2.3487,-22.2198 3.6157,-5.0834 49.665,-44.2902 70.2421,-59.8048 12.8523,-9.6903 17.3031,-11.1841 23.6086,-7.9234 3.6457,1.8853 28.3493,19.7509 32.0542,23.1815 l 2.6549,2.4584 16.3451,-6.5031 c 24.0457,-9.5668 51.1683,-17.6576 59.3451,-17.7029 1.65,-0.01 3.5557,-0.3695 4.2349,-0.8009 0.6791,-0.4314 3.5033,-9.0826 6.276,-19.2248 5.3593,-19.6044 7.8024,-24.7144 13.2348,-27.6823 2.9853,-1.6309 7.0569,-1.7779 49.2543,-1.7779 44.6243,0 46.1196,0.062 50,2.0778 5.7489,2.9863 8.7517,9.2129 12.9833,26.9222 4.2445,17.7635 4.8964,19.5 7.3206,19.5 1.0158,0 13.1344,3.2625 26.9304,7.25 28.1016,8.1223 31.8683,10.0603 32.9365,16.9457 0.8095,5.2184 -0.2074,8.2907 -4.0556,12.2533 -4.3202,4.4486 -7.6859,5.2596 -13.5097,3.2553 -2.533,-0.8718 -8.6555,-2.9699 -13.6055,-4.6625 -4.95,-1.6925 -17.1,-4.6955 -27,-6.6732 -27.5914,-5.512 -25.9738,-3.9255 -32.494,-31.8686 -3.7105,-15.9015 -4.6724,-18.3826 -7.3826,-19.0423 -1.1679,-0.2842 -16.5044,-0.391 -34.0812,-0.2372 l -31.9577,0.2795 -2.2832,7.5 c -1.2558,4.125 -3.7213,13.0778 -5.479,19.8952 -2.0695,8.0268 -4.0215,13.3764 -5.5386,15.1794 -2.8377,3.3725 -8.55,5.3051 -21.7837,7.37 -9.9461,1.552 -16.2921,3.642 -46.5,15.3145 -22.6932,8.7688 -34.8935,12.5051 -38.7935,11.8802 -3.5782,-0.5733 -13.328,-7.5525 -25.1878,-18.03 -4.1147,-3.6351 -8.0809,-6.6093 -8.8139,-6.6093 -1.3409,0 -21.8277,13.3787 -30.2048,19.7249 -6.0383,4.5745 -33,28.2887 -33,29.0252 0,0.3211 4.0175,8.3191 8.9278,17.7733 4.9102,9.4542 9.2303,18.8026 9.6002,20.7742 0.8392,4.4734 -2.4609,12.1444 -8.803,20.4624 -10.4801,13.7451 -28.592,43.964 -38.3526,63.9895 -4.088,8.3873 -8.7688,16.7713 -10.4017,18.6311 -3.1639,3.6034 -8.7863,5.6202 -15.6635,5.6184 -3.6393,-10e-4 -24.7533,5.3443 -26.8691,6.8022 -1.4112,0.9725 -4.0293,20.4901 -6.3983,47.6988 -1.1014,12.65 -2.2133,25.1249 -2.4708,27.722 l -0.4681,4.722 9.6995,5.3967 c 5.3348,2.9682 12.6246,6.9917 16.1996,8.9411 3.575,1.9493 7.5072,4.6193 8.7383,5.9333 2.8237,3.0137 4.4047,11.1234 3.6242,18.5904 -1.1544,11.0451 3.956,32.8567 14.6891,62.6945 10.3194,28.6876 10.3162,28.9587 -0.4783,40.3722 -10.3049,10.8957 -17.7631,20.1908 -17.2576,21.5081 0.2392,0.6233 3.3035,4.9585 6.8096,9.6339 3.5061,4.6753 11.7747,15.8769 18.3747,24.8923 17.7319,24.2215 27.4904,36.3199 28.8211,35.732 0.6484,-0.2865 4.5539,-1.8684 8.6789,-3.5153 4.125,-1.6469 9.975,-4.3652 13,-6.0407 9.7955,-5.4255 12.1056,-4.6204 26.0192,9.0683 19.511,19.1956 36.8482,33.0576 53.5564,42.8213 3.791,2.2153 7.7998,4.0323 8.9085,4.0376 3.1398,0.015 11.7471,4.4327 14.5159,7.4498 l 2.5,2.7243 -0.3314,20.3992 c -0.1823,11.2196 -0.038,21.7363 0.3212,23.3706 0.8436,3.841 5.2035,6.5225 14.648,9.0093 4.0492,1.0661 13.2122,3.5407 20.3622,5.499 26.5657,7.276 37.6223,9.6814 39.0508,8.4959 2.1066,-1.7483 14.6791,-18.697 19.7307,-26.5985 2.5109,-3.9273 6.2092,-8.3945 8.2185,-9.9271 l 3.6532,-2.7865 11.1734,1.9271 c 8.8179,1.5209 15.9166,1.9228 33.6734,1.9065 25.0335,-0.023 28.317,-0.45 62.4976,-8.1288 27.9339,-6.2754 34.3716,-8.171 39.3345,-11.5821 9.3408,-6.42 20.84697,-8.481 26.86451,-4.8119 1.75815,1.0721 8.45434,7.1342 14.88042,13.4715 l 11.6838,11.5224 3.11958,-2.1933 c 1.71577,-1.2063 6.13338,-4.4577 9.81692,-7.2252 12.47977,-9.3764 27.26198,-19.1889 37.55697,-24.9305 11.90036,-6.6369 11.34777,-3.6592 4.61587,-24.8727 -2.4036,-7.5742 -4.37018,-14.8574 -4.37018,-16.1849 0,-4.4142 2.02435,-7.8371 8.9417,-15.1193 10.31571,-10.8598 32.42699,-44.6966 44.61557,-68.275 8.90982,-17.2358 15.15575,-23.2214 22.67606,-21.7309 5.77561,1.1446 10.76667,6.8623 10.76667,12.334 0,4.3596 -3.70186,13.0577 -11.80907,27.7474 -13.03975,23.627 -34.15409,55.44 -42.10502,63.4396 l -4.41408,4.4412 4.16408,16.1795 c 2.29025,8.8988 4.16409,18.056 4.16409,20.3495 0,9.0446 -5.82954,15.4105 -23.26308,25.4033 -5.63031,3.2273 -21.26192,13.2036 -34.73692,22.1695 -13.475,8.966 -26.4125,16.8715 -28.75,17.5678 -7.78732,2.3199 -10.93008,0.5672 -26.43206,-14.7412 -9.30872,-9.1925 -14.10333,-13.2655 -15.00003,-12.7426 -0.7248,0.4228 -3.1952,2.0943 -5.4898,3.7144 -7.0418,4.9723 -40.3559,14.1363 -72.3281,19.896 -10.2791,1.8518 -16.0534,2.248 -32.5,2.2301 -11,-0.012 -24.4934,-0.6014 -29.9854,-1.3097 -9.3908,-1.2112 -10.0635,-1.178 -11.2964,0.5573 -0.721,1.0149 -4.887,7.2453 -9.2577,13.8453 -13.8008,20.8398 -19.0259,25.4356 -28.9605,25.4729 -3.086,0.012 -14.2408,-3.2431 -35.5,-10.3582 z"
         style="display:inline;fill:#e6836f;fill-opacity:1"
         id="path96" /></g><g
       id="g84"
       transform="matrix(1.2926137,-0.18126592,0.18126592,1.2926137,-549.85909,4044.1775)"
       style="stroke:#000000;stroke-width:2.23292;stroke-dasharray:none;stroke-opacity:1"><path
         style="fill:#e5d1a6;fill-opacity:1;stroke:#000000;stroke-width:2.23292;stroke-linejoin:round;stroke-dasharray:none;stroke-opacity:1"
         d="M -285.25,-326.25 C -308.13281,-280.87402 -402,-186 -439.75,-148.5 -477.5,-111 -615.5,21.5 -625.5,25 c -7.75,1.25 -6,-3.5 -6,-3.5 l 43.75,-55 c 0,0 131.87817,-139.17337 171.42708,-178.36917 39.54892,-39.19579 118.29362,-110.52508 118.29362,-110.52508 4.25977,-3.68406 7.86952,-7.47639 12.7793,-3.85575 z"
         id="path72" /><path
         style="fill:#a44245;fill-opacity:1;stroke:#000000;stroke-width:2.23292;stroke-linejoin:round;stroke-dasharray:none;stroke-opacity:1"
         d="m -462.58102,-40.255142 28.95546,28.602338 34.25218,-10.240343 70.62305,-70.269941 10.24035,-38.489562 -28.60234,-27.543 z"
         id="path74" /><path
         style="fill:none;fill-opacity:0.475962;stroke:#000000;stroke-width:2.23292;stroke-linejoin:round;stroke-dasharray:none;stroke-opacity:1"
         d="m -441.19525,-65.01553 43.68844,42.793101"
         id="path75" /><path
         style="fill:none;fill-opacity:0.475962;stroke:#000000;stroke-width:2.23292;stroke-linejoin:round;stroke-dasharray:none;stroke-opacity:1"
         d="m -370.07638,-135.01447 42.23313,40.881261"
         id="path76" /><path
         style="fill:none;fill-opacity:0.475962;stroke:#000000;stroke-width:2.23292;stroke-linejoin:round;stroke-dasharray:none;stroke-opacity:1"
         d="m -347.98247,-159.52695 30.12683,29.18866"
         id="path77" /><path
         style="fill:none;fill-opacity:0.475962;stroke:#000000;stroke-width:2.23292;stroke-linejoin:round;stroke-dasharray:none;stroke-opacity:1"
         d="m -462.42627,-40.200124 28.71438,28.714374"
         id="path78" /><path
         style="display:inline;fill:#a44245;fill-opacity:1;stroke:#000000;stroke-width:2.23292;stroke-linejoin:round;stroke-dasharray:none;stroke-opacity:1"
         d="m -636.71003,-285.14622 44.69454,44.94424 c 0,0 26.71686,18.72676 43.19641,1.24845 16.47955,-17.47832 3.99504,-39.95043 3.99504,-39.95043 l -48.4399,-47.94052 c -22.44703,6.65851 -35.62308,21.74519 -43.44609,41.69826 z"
         id="path84" /><path
         style="fill:#578865;fill-opacity:1;stroke:#000000;stroke-width:2.23292;stroke-linejoin:round;stroke-dasharray:none;stroke-opacity:1"
         d="m -559.30607,-294.38476 181.0254,79.40149 -3.24597,5.99256 -159.80173,-68.16542 z"
         id="path82" /><path
         style="display:inline;fill:#578865;fill-opacity:1;stroke:#000000;stroke-width:2.23292;stroke-linejoin:round;stroke-dasharray:none;stroke-opacity:1"
         d="m -387.01435,-204.98342 -152.89891,-64.26698 0.88278,-7.23887 156.60663,66.56224 z"
         id="path83" /><path
         style="fill:#578865;fill-opacity:1;stroke:#000000;stroke-width:2.23292;stroke-linejoin:round;stroke-dasharray:none;stroke-opacity:1"
         d="m -620.23048,-267.6679 56.92937,236.206934 12.98389,-11.98513 -47.94052,-205.744734 z"
         id="path79" /><path
         style="fill:#578865;fill-opacity:1;stroke:#000000;stroke-width:2.23292;stroke-linejoin:round;stroke-dasharray:none;stroke-opacity:1"
         d="m -601.50372,-299.87794 7.24102,-6.49195 197.00558,110.61277 -6.99133,8.48946 z"
         id="path80" /><path
         style="fill:#578865;fill-opacity:1;stroke:#000000;stroke-width:2.23292;stroke-linejoin:round;stroke-dasharray:none;stroke-opacity:1"
         d="m -410.24101,-180.77571 -176.28129,-102.62268 -12.98389,-15.73048 195.00805,110.61276 z"
         id="path81" /><path
         style="display:inline;fill:#afbf50;fill-opacity:1;stroke:#000000;stroke-width:2.23292;stroke-linejoin:round;stroke-dasharray:none;stroke-opacity:1"
         d="m -285.43875,-326.00713 c -1.99752,21.72304 -14.23234,104.86988 -61.42379,169.53965 -47.19145,64.669762 -165.22775,184.524999 -283.16825,181.700076 z"
         id="path73" /></g></g></svg>
