<?xml version="1.0" encoding="UTF-8" standalone="no"?>
<!-- Created with Inkscape (http://www.inkscape.org/) -->

<svg
   width="48"
   height="48"
   viewBox="0 0 48 48"
   version="1.1"
   id="svg1"
   xml:space="preserve"
   xmlns:xlink="http://www.w3.org/1999/xlink"
   xmlns="http://www.w3.org/2000/svg"
   xmlns:svg="http://www.w3.org/2000/svg"><defs
     id="defs1"><linearGradient
       id="linearGradient124"><stop
         style="stop-color:#e26d31;stop-opacity:1;"
         offset="0"
         id="stop124" /><stop
         style="stop-color:#cd5869;stop-opacity:1;"
         offset="1"
         id="stop125" /></linearGradient><linearGradient
       id="linearGradient114"><stop
         style="stop-color:#e26d31;stop-opacity:1;"
         offset="0"
         id="stop114" /><stop
         style="stop-color:#cd5869;stop-opacity:1;"
         offset="1"
         id="stop115" /></linearGradient><linearGradient
       id="linearGradient112"><stop
         style="stop-color:#60a9d9;stop-opacity:1;"
         offset="0.46153846"
         id="stop112" /><stop
         style="stop-color:#4e6ccf;stop-opacity:1;"
         offset="1"
         id="stop113" /></linearGradient><linearGradient
       id="linearGradient110"><stop
         style="stop-color:#e26d31;stop-opacity:1;"
         offset="0"
         id="stop111" /><stop
         style="stop-color:#cd5869;stop-opacity:1;"
         offset="1"
         id="stop110" /></linearGradient><linearGradient
       id="linearGradient108"><stop
         style="stop-color:#4e6ccf;stop-opacity:1;"
         offset="0"
         id="stop108" /><stop
         style="stop-color:#60a9d9;stop-opacity:1;"
         offset="1"
         id="stop109" /></linearGradient><linearGradient
       id="linearGradient106"><stop
         style="stop-color:#60a9d9;stop-opacity:1;"
         offset="0"
         id="stop106" /><stop
         style="stop-color:#4e6ccf;stop-opacity:1;"
         offset="1"
         id="stop107" /></linearGradient><linearGradient
       xlink:href="#linearGradient106"
       id="linearGradient107"
       x1="-1083.2065"
       y1="-82.218239"
       x2="-483.74225"
       y2="-349.11694"
       gradientUnits="userSpaceOnUse" /><linearGradient
       xlink:href="#linearGradient108"
       id="linearGradient109"
       x1="-663.5"
       y1="139.5"
       x2="-891"
       y2="139.5"
       gradientUnits="userSpaceOnUse" /><linearGradient
       xlink:href="#linearGradient110"
       id="linearGradient111"
       x1="-1013.9911"
       y1="-30.40559"
       x2="-538.81537"
       y2="-30.40559"
       gradientUnits="userSpaceOnUse" /><linearGradient
       xlink:href="#linearGradient112"
       id="linearGradient113"
       x1="-1137"
       y1="-361"
       x2="-421"
       y2="-361"
       gradientUnits="userSpaceOnUse" /><linearGradient
       xlink:href="#linearGradient114"
       id="linearGradient115"
       x1="-1141.9774"
       y1="-306.53079"
       x2="-424.26407"
       y2="-306.53079"
       gradientUnits="userSpaceOnUse" /><linearGradient
       xlink:href="#linearGradient124"
       id="linearGradient125"
       x1="-857.18323"
       y1="248.96304"
       x2="-699.86578"
       y2="248.96304"
       gradientUnits="userSpaceOnUse" /><linearGradient
       xlink:href="#linearGradient112"
       id="linearGradient126"
       gradientUnits="userSpaceOnUse"
       x1="-1137"
       y1="-361"
       x2="-421"
       y2="-361" /></defs><g
     id="g115"
     transform="matrix(0.05285984,0,0,0.05285984,65.005119,29.116399)"><path
       style="display:inline;fill:url(#linearGradient109);stroke:none;stroke-width:14.482;stroke-linejoin:round;stroke-dasharray:none;stroke-opacity:1"
       d="m -880.5,100 -10.5,18.5 3,52.5 15.5,10.5 H -681 l 15.5,-15 2,-51.5 -16,-17.5 z"
       id="path107" /><path
       style="display:inline;fill:url(#linearGradient111);fill-opacity:1;stroke:none;stroke-width:14.482;stroke-linejoin:round;stroke-dasharray:none;stroke-opacity:1"
       d="m -1013.9911,-152.73506 188.09038,12.72792 222.03153,-7.07107 65.05383,-8.48528 -171.11985,244.658944 -125.865,5.656854 z"
       id="path110" /><path
       style="display:inline;fill:url(#linearGradient126);stroke:none;stroke-width:14.482;stroke-linejoin:round;stroke-dasharray:none;stroke-opacity:1"
       d="m -1133,-392 -4,79 32,17 286,28 225,-11 152,-26 21,-27 -3,-51 -38,-30 -233,-41 -207,7 -127,26 z"
       id="path111" /><path
       style="display:inline;fill:#435aa9;fill-opacity:1;stroke:none;stroke-width:14.482;stroke-linejoin:round;stroke-dasharray:none;stroke-opacity:1"
       d="m -881.76215,99.702056 c 2.82842,1.414214 53.03301,21.213204 53.03301,21.213204 l 107.48023,-0.70711 38.18376,-13.43503 2.82843,-7.778171 -93.3381,-3.535534 z"
       id="path109" /><path
       style="display:inline;fill:url(#linearGradient115);stroke:none;stroke-width:14.482;stroke-linejoin:round;stroke-dasharray:none;stroke-opacity:1"
       d="m -1141.9774,-343.65389 72.1248,14.84924 188.09045,24.04163 200.81832,-1.41422 192.33305,-19.79898 64.34671,-14.14214 -0.7071,22.62742 -39.59798,20.50609 -181.01934,27.57717 h -164.04877 l -203.64674,-12.02082 -74.2462,-10.6066 c 0,0 -29.6985,-8.48528 -33.234,-11.31371 -3.5356,-2.82843 -18.3848,-17.67767 -18.3848,-17.67767 z"
       id="path113" /><path
       style="display:inline;fill:url(#linearGradient107);stroke:none;stroke-width:14.482;stroke-linejoin:round;stroke-dasharray:none;stroke-opacity:1"
       d="m -1111.5719,-294.15642 96.1666,141.42136 239.00206,15.55635 236.17366,-18.38478 84.85281,-135.7645 -118.79393,11.31371 -197.9899,12.72792 z"
       id="path106" /><path
       style="display:inline;fill:url(#linearGradient125);fill-opacity:1;stroke:#1b1d48;stroke-width:14.482;stroke-linejoin:round;stroke-dasharray:none;stroke-opacity:1"
       d="m -849.94235,181.01934 0.70711,108.89444 14.84924,19.79899 108.89445,-0.70711 18.38477,-16.26345 -1.41421,-111.01577"
       id="path105" /><path
       style="display:inline;mix-blend-mode:multiply;fill:#a9a9a9;fill-opacity:0.35124;stroke:none;stroke-width:14.5752;stroke-linecap:round;stroke-linejoin:round;stroke-dasharray:none;stroke-opacity:1"
       d="M -780.33217,-456.79098 V 189.25366 319.89949 L -725,318.88658 l 20,-18.23238 -2,-111.42013 28,1.01291 17,-18.23239 v -49.6326 l -16,-22.28403 h -30 l 52,-80.019911 221,-322.105469 17,-44.56806 -6,-44.56805 -39,-21.27112 -179,-34.43895 z"
       id="path115" /><g
       id="g118"
       transform="matrix(0.94644295,0,0,0.94644295,2181.3606,372.54045)"><path
         style="fill:#8bdff4;fill-opacity:1;stroke:#1b1d48;stroke-width:14.482;stroke-linecap:round;stroke-linejoin:round;stroke-dasharray:none;stroke-opacity:1"
         d="m -3364.113,-714.33626 173.9132,-5.40501 -4.2837,-142.90017 -138.0826,4.49315 -34.803,37.79587 z"
         id="path116" /><path
         style="fill:#1b1d48;fill-opacity:1;stroke:none;stroke-width:14.482;stroke-linecap:round;stroke-linejoin:round;stroke-dasharray:none;stroke-opacity:1"
         d="m -3247.0343,-871.68588 -0.1768,24.92551 c 0.6487,3.12278 0.342,6.72328 5.4801,7.6014 l 27.9307,-0.17678 z"
         id="path117" /><circle
         style="fill:none;fill-opacity:1;stroke:#1b1d48;stroke-width:9.35018;stroke-linecap:round;stroke-linejoin:round;stroke-dasharray:none;stroke-opacity:1"
         id="path118"
         cx="-3284"
         cy="-785.5"
         r="23.56591" /></g><g
       id="g122"
       transform="matrix(-0.02673589,-1.1046244,1.1046244,-0.02673589,97.797129,-4072.2705)"><path
         style="fill:#d07a57;fill-opacity:1;stroke:#1b1d48;stroke-width:14.482;stroke-linecap:round;stroke-linejoin:round;stroke-dasharray:none;stroke-opacity:1"
         d="m -3350.979,-875.39819 0.3535,173.99673 142.9643,-0.13299 -0.4823,-138.15485 -36.7695,-35.88567 z"
         id="path121" /><path
         style="fill:#1b1d48;fill-opacity:1;stroke:none;stroke-width:14.482;stroke-linecap:round;stroke-linejoin:round;stroke-dasharray:none;stroke-opacity:1"
         d="m -3247.0343,-871.68588 -0.1768,24.92551 c 0.6487,3.12278 0.342,6.72328 5.4801,7.6014 l 27.9307,-0.17678 z"
         id="path122" /><circle
         style="fill:none;fill-opacity:1;stroke:#1b1d48;stroke-width:9.35018;stroke-linecap:round;stroke-linejoin:round;stroke-dasharray:none;stroke-opacity:1"
         id="circle122"
         cx="-3284"
         cy="-785.5"
         r="23.56591" /></g><g
       id="g120"
       transform="matrix(1.1049479,0,0,1.1049479,2820.487,472.99277)"><path
         style="fill:#ecd2aa;fill-opacity:1;stroke:#1b1d48;stroke-width:14.482;stroke-linecap:round;stroke-linejoin:round;stroke-dasharray:none;stroke-opacity:1"
         d="m -3350.979,-875.39819 0.3535,173.99673 142.9643,-0.13299 -0.4823,-138.15485 -36.7695,-35.88567 z"
         id="path119" /><path
         style="fill:#1b1d48;fill-opacity:1;stroke:none;stroke-width:14.482;stroke-linecap:round;stroke-linejoin:round;stroke-dasharray:none;stroke-opacity:1"
         d="m -3247.0343,-871.68588 -0.1768,24.92551 c 0.6487,3.12278 0.342,6.72328 5.4801,7.6014 l 27.9307,-0.17678 z"
         id="path120" /><circle
         style="fill:none;fill-opacity:1;stroke:#1b1d48;stroke-width:9.35018;stroke-linecap:round;stroke-linejoin:round;stroke-dasharray:none;stroke-opacity:1"
         id="circle120"
         cx="-3284"
         cy="-785.5"
         r="23.56591" /></g><path
       id="path123"
       style="display:inline;fill:url(#linearGradient113);stroke:none;stroke-width:14.482;stroke-linejoin:round;stroke-dasharray:none;stroke-opacity:1"
       d="M -1120.7402,-395.41797 -1133,-392 l -4,79 32,17 286,28 225,-11 152,-26 21,-27 -3,-51 -14.36719,-11.3418 c -68.79296,29.098 -241.41655,48.78731 -329.92578,50.06446 -92.47905,1.33443 -311.70073,-16.71635 -352.44723,-51.14063 z" /><path
       id="path97"
       style="display:inline;fill:none;fill-opacity:1;stroke:#1b1d48;stroke-width:18.782;stroke-linecap:butt;stroke-linejoin:round;stroke-dasharray:none;stroke-opacity:1"
       d="m -975.64006,-435.7346 c -13.13277,2.38453 -29.22694,7.0296 -40.48494,9.8596 -68.125,17.125 -108.125,24.875 -117.625,41.625 -5.5,6.75 -3.75,55.75 -2.25,66.25 4,6 -2,45.5 364,47.5 366,2 347,-54.5 347,-54.5 l 1,-58 c 0,0 -17,-27 -49,-33 -15.56833,-2.91906 -57.16351,-12.37016 -110.56055,-20.68164" /><path
       style="display:inline;fill:none;fill-opacity:1;stroke:#303141;stroke-width:11.782;stroke-linejoin:round;stroke-dasharray:none;stroke-opacity:1"
       d="m -1134.9064,-340.11836 c 234.99186,48.95854 470.93643,49.32906 707.81391,2.12132"
       id="path102" /><path
       style="display:inline;fill:none;fill-opacity:1;stroke:#1b1d48;stroke-width:18.782;stroke-linejoin:round;stroke-dasharray:none;stroke-opacity:1"
       d="M -1134.25,-316.25 C -1133,-314.5 -839,96.5 -839,96.5"
       id="path98" /><path
       style="display:inline;fill:none;fill-opacity:1;stroke:#1b1d48;stroke-width:18.782;stroke-linejoin:round;stroke-dasharray:none;stroke-opacity:1"
       d="M -424.38388,-321.11612 -717.29289,95.171573"
       id="path99" /><path
       style="display:inline;fill:none;fill-opacity:1;stroke:#1b1d48;stroke-width:18.782;stroke-linejoin:round;stroke-dasharray:none;stroke-opacity:1"
       d="m -1018.2338,-155.56349 c 160.74895,22.08547 321.49791,26.15409 482.24686,-0.70711"
       id="path100" /><path
       style="display:inline;fill:none;fill-opacity:1;stroke:#272a5f;stroke-width:11.782;stroke-linecap:round;stroke-linejoin:round;stroke-dasharray:none;stroke-opacity:1"
       d="m -1086.116,-382.54477 c 41.817,24.18769 224.83494,39.60841 317.82206,38.26665 92.98713,-1.34176 241.60746,-10.25363 302.31057,-38.26665"
       id="path101" /><path
       style="fill:none;fill-opacity:1;stroke:#1b1d48;stroke-width:11.782;stroke-linejoin:round;stroke-dasharray:none;stroke-opacity:1"
       d="m -891.66165,115.96551 c 2.57451,-10.38709 9.44634,-16.95434 20.5061,-19.798988 l 175.36248,-0.707107 c 12.70233,1.006781 25.7382,1.179724 31.1127,20.506095 v 48.08326 c -4.21185,11.81947 -10.66126,15.43449 -17.67767,16.97057 h -190.21172 c -10.53929,-1.76774 -16.07586,-7.91286 -19.09189,-16.26346 z"
       id="path103" /><path
       style="fill:none;fill-opacity:1;stroke:#1b1d48;stroke-width:14.482;stroke-linejoin:round;stroke-dasharray:none;stroke-opacity:1"
       d="m -879.69108,102.4447 c 12.28915,16.98627 77.20074,19.04648 109.60639,19.04648 35.2061,0 77.49827,-3.12357 91.96929,-18.9607"
       id="path104" /><path
       style="fill:none;fill-opacity:1;stroke:#1b1d48;stroke-width:14.482;stroke-linecap:round;stroke-linejoin:round;stroke-dasharray:none;stroke-opacity:1"
       d="m -780,209 v 56 l 36,-29"
       id="path125" /><path
       style="fill:none;fill-opacity:1;stroke:#1b1d48;stroke-width:14.482;stroke-linecap:round;stroke-linejoin:round;stroke-dasharray:none;stroke-opacity:1"
       d="m -782,264.64645 -33.57538,-25.93934"
       id="path126" /></g></svg>
