<?xml version="1.0" encoding="UTF-8" standalone="no"?>
<!-- Created with Inkscape (http://www.inkscape.org/) -->

<svg
   width="48"
   height="48"
   viewBox="0 0 48 48"
   version="1.1"
   id="svg1"
   xml:space="preserve"
   xmlns="http://www.w3.org/2000/svg"
   xmlns:svg="http://www.w3.org/2000/svg"><defs
     id="defs1" /><g
     id="layer1"
     style="display:inline"><path
       style="fill:#f93b3b;fill-opacity:1"
       d="m 41.18665,44.536186 -0.40343,-0.04545 -0.412394,-0.131019 -0.412393,-0.131019 -0.340675,-0.192747 -0.340675,-0.192747 -0.30778,-0.244312 -0.307781,-0.244312 -0.301484,-0.363489 -0.301484,-0.36349 -0.236252,-0.484115 -0.236252,-0.484115 -0.08964,-0.40343 -0.08964,-0.403429 0.0029,-0.672383 0.0029,-0.672382 0.08067,-0.295681 0.08067,-0.29568 -0.05057,-0.06093 -0.05057,-0.06093 -0.227398,-0.153793 -0.227398,-0.153793 -0.645487,-0.462983 -0.645487,-0.462984 -0.645487,-0.428622 -0.645488,-0.428622 -1.721299,-1.154701 -1.721299,-1.1547 -0.692409,-0.446329 -0.69241,-0.446329 -0.06598,-0.02532 -0.06598,-0.02532 -1.581499,0.50995 -1.5815,0.509951 -2.178519,0.735139 -2.17852,0.735138 -0.779963,0.268548 -0.779964,0.268549 -0.726173,0.259983 -0.726173,0.259983 -1.828881,0.654897 -1.82888,0.654897 -0.403429,0.150264 -0.40343,0.150265 -0.618592,0.202348 -0.618592,0.202348 -0.484115,0.02372 -0.484115,0.02372 -0.306907,-0.115654 -0.306907,-0.115655 -0.23613,-0.239513 -0.236131,-0.239514 -0.146583,-0.269323 -0.146584,-0.269322 0.01724,-0.08492 0.01724,-0.08492 0.833754,-0.255088 0.833754,-0.255088 0.618592,-0.219419 0.618592,-0.21942 1.210288,-0.430091 1.210289,-0.430092 1.533032,-0.548135 1.533032,-0.548136 0.511011,-0.177463 0.51101,-0.177463 1.344765,-0.467046 1.344765,-0.467046 1.990253,-0.66012 1.990252,-0.660119 0.18687,-0.04978 0.18687,-0.04978 -0.211803,-0.130902 -0.211804,-0.130902 -0.08265,-0.07442 -0.08265,-0.07442 -1.102707,-0.699119 -1.102707,-0.699118 -0.311471,-0.196652 -0.311471,-0.196652 -1.072318,-0.699278 -1.072318,-0.699278 -0.579568,-0.374077 -0.579568,-0.374078 -0.618592,-0.407538 -0.618592,-0.407538 -0.45722,-0.284077 -0.45722,-0.284077 -0.421063,-0.265624 -0.421063,-0.265625 -0.116843,2.81e-4 -0.116843,2.82e-4 -0.551907,0.3897 -0.551908,0.3897 -1.330763,0.940145 -1.330764,0.940145 -0.645487,0.487145 -0.645487,0.487144 -0.723736,0.528533 -0.723736,0.528534 -0.06628,0.02543 -0.06628,0.02543 0.0318,0.08968 0.03181,0.08968 0.226561,0.322744 0.226562,0.322744 0.201013,0.399673 0.201014,0.399673 0.133607,0.514767 0.133608,0.514767 9.77e-4,0.564801 9.77e-4,0.564801 -0.09194,0.40343 -0.09194,0.403429 -0.258722,0.537906 -0.258721,0.537906 -0.241123,0.28026 -0.241123,0.280261 -0.303315,0.265423 -0.303315,0.265424 -0.3611961,0.188996 -0.3611963,0.188995 -0.3765342,0.113149 -0.3765342,0.113149 -0.4411322,0.04216 -0.4411321,0.04216 -0.4637,-0.04066 -0.463795,-0.04065 L 6.5820072,37.786438 6.2496555,37.701493 5.8121528,37.489961 5.37465,37.278429 5.0590844,37.026141 4.7435188,36.773853 4.4745658,36.459999 4.2056128,36.146144 4.0044661,35.814433 3.8033194,35.482721 3.6901908,35.182237 3.5770621,34.881752 3.5022896,34.532113 3.4275171,34.182474 v -0.618592 -0.618591 l 0.079433,-0.374992 0.079433,-0.374991 0.1864976,-0.39271 0.1864976,-0.392711 0.1892455,-0.285111 0.1892454,-0.28511 0.3189295,-0.326948 0.3189295,-0.326947 0.3337349,-0.226635 0.3337348,-0.226635 0.3301239,-0.146889 0.3301239,-0.146888 0.3496389,-0.09864 0.3496389,-0.09864 h 0.591697 0.5916966 l 0.3364247,0.09744 0.3364247,0.09744 0.2144012,-0.155078 0.2144013,-0.155078 0.1524361,-0.109291 0.1524361,-0.109291 1.0718278,-0.774005 1.071828,-0.774005 0.52214,-0.380783 0.52214,-0.380783 0.523856,-0.376534 0.523856,-0.376535 0.379455,-0.265022 0.379454,-0.265022 0.215163,-0.154764 0.215162,-0.154763 0.363087,-0.241755 0.363086,-0.241755 v -0.0426 -0.0426 l -0.874097,-0.544941 -0.874097,-0.544941 -0.603094,-0.39153 -0.603093,-0.391529 -0.338242,-0.214259 -0.338242,-0.21426 -0.148507,-0.06579 -0.148506,-0.06579 -0.221872,0.441421 -0.221873,0.44142 -0.229716,0.295849 -0.229717,0.295848 -0.233659,0.219409 -0.233659,0.21941 -0.224269,0.171655 -0.22427,0.171654 -0.4088319,0.186311 -0.408832,0.186311 -0.4247773,0.108455 -0.4247773,0.108455 H 7.7557923 7.1820201 L 6.7427331,24.739298 6.3034461,24.62879 5.8686764,24.415347 5.4339067,24.201904 5.0783792,23.908648 4.7228517,23.615393 4.4487541,23.286031 4.1746564,22.956669 3.9663515,22.542371 3.7580466,22.128073 l -0.111222,-0.37388 -0.1112219,-0.373881 -0.053468,-0.443773 -0.053467,-0.443772 0.054063,-0.443773 0.054063,-0.443772 0.082702,-0.290294 0.082702,-0.290295 0.1638169,-0.346719 0.1638169,-0.346719 0.3107445,-0.411903 0.3107445,-0.411903 0.3150526,-0.257675 0.3150526,-0.257674 0.4841153,-0.239013 0.4841154,-0.239013 0.452526,-0.114321 0.4525259,-0.114321 0.7308672,0.02451 0.7308673,0.02451 0.4338822,0.141941 0.4338822,0.141941 0.4536627,0.272098 0.4536631,0.272097 0.313961,0.306936 0.313961,0.306936 0.235077,0.326329 0.235077,0.326329 0.116335,0.265367 0.116335,0.265368 0.114591,0.349639 0.11459,0.349639 0.336005,0.215162 0.336006,0.215162 0.228796,0.139384 0.228796,0.139384 0.795158,0.506103 0.795158,0.506104 0.293533,0.188267 0.293533,0.188267 0.592674,0.376534 0.592674,0.376534 0.481525,0.309296 0.481525,0.309296 h 0.06947 0.06947 l 0.80681,-0.592019 0.80681,-0.59202 0.833755,-0.602076 0.833754,-0.602077 0.430325,-0.291551 0.430324,-0.291551 0.09544,-0.0838 0.09544,-0.0838 -0.01476,-0.03731 -0.01476,-0.03731 -0.645479,-0.518716 -0.645487,-0.518712 -1.37166,-1.086985 -1.371661,-1.086986 -2.097833,-1.673056 -2.097833,-1.673057 -1.243248,-0.975258 -1.243247,-0.975257 -0.370471,-0.304751 -0.37047,-0.304751 -0.116571,-0.0539 -0.116571,-0.05389 -0.3137541,0.190465 -0.3137542,0.190465 -0.268953,0.10557 -0.268953,0.105569 -0.4226308,0.0871 -0.4226308,0.0871 H 7.7552391 7.3627638 L 6.8433993,11.351469 6.3240349,11.246992 5.9372063,11.055738 5.5503777,10.864485 5.175562,10.581967 4.8007463,10.299449 4.4935775,9.9326858 4.1864088,9.5659228 3.9697532,9.1258268 3.7530977,8.6857308 3.6311815,8.2554058 3.5092654,7.8250809 3.5117188,7.1258031 3.5141722,6.4265253 3.6091699,6.0768864 3.7041677,5.7272476 3.8789409,5.3507134 4.0537142,4.9741792 4.1992359,4.7590168 4.3447576,4.5438544 4.6786147,4.2000633 5.0124718,3.8562722 5.3976426,3.6025651 l 0.3851708,-0.253707 0.354234,-0.1418096 0.354234,-0.1418096 0.4644821,-0.080999 0.464482,-0.080999 0.3560405,0.00188 0.3560405,0.00188 0.4046244,0.072198 0.4046244,0.072198 0.3653019,0.1461438 0.365302,0.1461438 0.2179755,0.1238124 0.2179753,0.1238123 0.365368,0.3005765 0.365368,0.3005766 0.273439,0.3639666 0.27344,0.3639667 0.186631,0.3765342 0.186632,0.3765342 0.115975,0.4841153 0.115975,0.4841154 -7.37e-4,0.4841154 -7.38e-4,0.4841154 -0.09286,0.4034295 -0.09286,0.403429 -0.106406,0.286597 -0.106405,0.286596 0.126463,0.138125 0.126464,0.138124 0.63669,0.530062 0.63669,0.530063 0.22396,-9.32e-4 0.223959,-9.33e-4 0.502423,-0.05292 0.502423,-0.05292 L 16.353701,9.89391 18.137379,9.569174 20.315897,9.137917 22.494416,8.706662 23.113008,8.576242 23.7316,8.445823 24.538459,8.286469 25.345318,8.127115 27.685209,7.6687959 30.0251,7.2104768 31.719504,6.8835819 33.413908,6.556687 33.951814,6.4543427 34.48972,6.3519983 35.188998,6.237473 35.888276,6.1229476 36.614449,5.9860028 37.340622,5.849058 37.429172,5.802701 37.517722,5.756344 37.676107,5.4190576 37.834491,5.0817712 38.038523,4.763812 38.242554,4.4458527 38.588252,4.1052224 38.933951,3.764592 39.17307,3.6000738 l 0.239119,-0.1645182 0.389666,-0.1840259 0.389666,-0.1840258 0.349639,-0.08889 0.349639,-0.08889 0.753069,0.029331 0.753068,0.029331 0.349639,0.1064788 0.349639,0.1064789 0.31705,0.1426587 0.317051,0.1426588 0.247751,0.1687455 0.24775,0.1687455 0.257629,0.2152483 0.257629,0.2152482 0.29121,0.3802006 0.29121,0.3802005 0.197027,0.426439 0.197027,0.426439 0.10063,0.4875718 0.100629,0.4875717 -0.0012,0.3765342 -0.0012,0.3765342 -0.07226,0.4034295 -0.07226,0.4034293 -0.158113,0.406426 -0.158112,0.406426 -0.194954,0.292852 -0.194954,0.292852 -0.277244,0.3102636 -0.277244,0.310264 -0.338031,0.241214 -0.338031,0.241214 -0.406588,0.185288 -0.406588,0.185288 -0.420161,0.08771 -0.420161,0.08771 -0.537906,0.0016 -0.537906,0.0016 -0.376467,-0.06091 -0.376534,-0.06092 -0.295848,-0.115136 -0.295848,-0.115135 -0.242058,-0.134826 -0.242058,-0.134826 -0.224215,-0.179041 -0.224215,-0.179042 h -0.128532 -0.128533 l -0.481006,0.346598 -0.481007,0.346597 -0.188267,0.133809 -0.188267,0.133811 -0.645488,0.476222 -0.645487,0.476222 -0.753068,0.531971 -0.753069,0.531972 -0.618592,0.446258 -0.618591,0.446258 -1.005956,0.714329 -1.005956,0.714328 -1.064982,0.765226 -1.064983,0.765226 -0.833754,0.600531 -0.833754,0.60053 -1.008574,0.750927 -1.008574,0.750927 v 0.09214 0.09214 l 0.470558,0.400023 0.470557,0.400024 0.278883,0.22861 0.278883,0.22861 h 0.13733 0.13733 l 0.686605,-0.23499 0.686604,-0.23499 0.941336,-0.280839 0.941335,-0.28084 0.564802,-0.17748 0.564801,-0.17748 0.995126,-0.307023 0.995126,-0.307024 1.022022,-0.323379 1.022021,-0.323379 0.349639,-0.106527 0.349639,-0.106528 0.470737,-0.120792 0.470738,-0.120793 0.02819,-0.02819 0.02819,-0.02819 0.07523,-0.451376 0.07524,-0.451377 0.110359,-0.313902 0.110359,-0.313901 0.171827,-0.304691 0.171828,-0.30469 0.263938,-0.335559 0.263939,-0.335559 0.278272,-0.234638 0.278272,-0.234637 0.325427,-0.188322 0.325426,-0.188321 0.346956,-0.137526 0.346956,-0.137526 0.418502,-0.06638 0.418502,-0.06638 0.549729,0.03092 0.549728,0.03092 0.322744,0.08569 0.322744,0.08569 0.430324,0.205632 0.430325,0.205632 0.268953,0.205588 0.268953,0.205589 0.178739,0.165637 0.17874,0.165637 0.24422,0.322718 0.244221,0.322717 0.175972,0.349665 0.175971,0.349665 0.112887,0.365814 0.112886,0.365814 0.06134,0.478294 0.06134,0.478294 -0.06321,0.446866 -0.06321,0.446867 -0.110387,0.357041 -0.110387,0.357041 -0.229495,0.422922 -0.229495,0.422923 -0.262486,0.300039 -0.262486,0.30004 -0.349639,0.280703 -0.349639,0.280703 -0.430325,0.212983 -0.430325,0.212984 -0.430325,0.108982 -0.430324,0.108983 -0.48963,0.0034 -0.489629,0.0034 -0.446933,-0.09116 -0.446933,-0.09116 -0.399875,-0.182229 -0.399876,-0.182229 -0.369468,-0.245622 -0.369469,-0.245622 -0.303074,-0.333354 -0.303074,-0.333354 -0.241485,-0.416877 -0.241485,-0.416877 h -0.108445 -0.108447 l -0.465094,0.140887 -0.465094,0.140888 -1.344765,0.419512 -1.344765,0.419512 -1.559928,0.464575 -1.559927,0.464575 -0.726173,0.235214 -0.726173,0.235214 -0.204056,0.03721 -0.204055,0.03721 0.01579,0.0372 0.01579,0.0372 0.215162,0.18908 0.215162,0.189079 1.183394,0.93444 1.183393,0.934441 0.779964,0.638163 0.779963,0.638163 0.640896,0.521133 0.640895,0.521134 0.37212,0.322743 0.37212,0.322744 0.439331,0.361894 0.439331,0.361894 0.08674,0.0012 0.08674,0.0012 0.451162,-0.111322 0.451163,-0.111322 0.0618,-0.0635 0.0618,-0.0635 0.137637,-0.45722 0.137636,-0.45722 0.284677,-0.482289 0.284676,-0.482288 0.433324,-0.432152 0.433324,-0.432152 0.302813,-0.179273 0.302812,-0.179273 0.372266,-0.151495 0.372266,-0.151495 0.317048,-0.07031 0.317049,-0.07031 0.618592,0.0026 0.618592,0.0026 0.366801,0.08927 0.366801,0.08927 0.393198,0.181669 0.393198,0.181669 0.288918,0.214655 0.288917,0.214656 0.251192,0.245671 0.251192,0.24567 0.215764,0.285806 0.215763,0.285805 0.19143,0.387378 0.191429,0.387378 0.118358,0.419481 0.118357,0.419481 -0.0039,0.726173 -0.0039,0.726173 -0.110093,0.41074 -0.110093,0.41074 -0.195749,0.396119 -0.19575,0.396119 -0.22205,0.295849 -0.222049,0.295848 -0.231466,0.226611 -0.231466,0.226611 -0.316461,0.214904 -0.31646,0.214904 -0.342467,0.156076 -0.342466,0.156075 -0.349639,0.09039 -0.349639,0.09039 -0.468093,0.03254 -0.468093,0.03254 -0.419452,-0.06564 -0.419452,-0.06564 -0.266912,-0.07712 -0.266913,-0.07712 -0.40547,-0.195543 -0.40547,-0.195543 -0.3586,-0.290517 -0.3586,-0.290516 -0.206201,-0.250469 -0.206201,-0.25047 -0.172334,-0.265884 -0.172334,-0.265885 -0.148932,-0.341863 -0.148932,-0.341863 h -0.120059 -0.12006 l -0.365534,0.135561 -0.365533,0.135561 -1.129603,0.373515 -1.129602,0.373516 -1.075812,0.327385 -1.075812,0.327385 -0.09575,0.09453 -0.09575,0.09453 0.230223,0.115002 0.230224,0.115002 0.672382,0.45076 0.672383,0.450761 0.894061,0.614524 0.894062,0.614523 0.979933,0.666906 0.979933,0.666905 0.556614,0.389673 0.556614,0.389672 0.420293,-0.322702 0.420293,-0.322702 0.360855,-0.182075 0.360855,-0.182075 0.419109,-0.117625 0.419108,-0.117626 0.672383,-0.0012 0.672382,-0.0012 0.398756,0.122545 0.398756,0.122545 0.344255,0.162652 0.344254,0.162653 0.386592,0.310063 0.386593,0.310064 0.143137,0.15511 0.143137,0.15511 0.273249,0.398847 0.273249,0.398848 0.162687,0.421862 0.162687,0.421862 0.07986,0.379648 0.07986,0.379648 v 0.579576 0.579575 l -0.102116,0.398586 -0.102116,0.398587 -0.136812,0.308913 -0.136813,0.308914 -0.189058,0.284829 -0.189059,0.284828 -0.33096,0.336134 -0.330961,0.336134 -0.311112,0.211272 -0.311112,0.211272 -0.288153,0.130742 -0.288153,0.130742 -0.403429,0.10973 -0.40343,0.10973 -0.403429,0.02573 -0.40343,0.02573 z m -10.677434,-13.657134 0.484115,-0.163369 0.726173,-0.222976 0.726173,-0.222976 0.67237,-0.213816 0.67237,-0.213816 0.03953,-0.06212 0.03953,-0.06212 8.23e-4,-0.02886 8.24e-4,-0.02886 -0.282401,-0.210705 -0.2824,-0.210705 -0.968646,-0.80935 -0.968645,-0.809351 -0.241643,-0.196305 -0.241643,-0.196305 -0.672383,-0.554245 -0.672382,-0.554246 -0.672383,-0.54262 -0.672382,-0.542621 -1.506137,-1.21197 -1.506137,-1.21197 -0.734064,-0.569505 -0.734064,-0.569504 -0.104764,-0.05607 -0.104765,-0.05607 -0.37146,0.263076 -0.37146,0.263076 -0.215162,0.15606 -0.215162,0.15606 -1.048917,0.743786 -1.048917,0.743785 -0.385436,0.300284 -0.385436,0.300283 -0.02524,0.08967 -0.02524,0.08967 1.00237,0.642727 1.00237,0.642727 0.887545,0.574715 0.887545,0.574714 0.995126,0.649698 0.995126,0.649697 0.553868,0.356188 0.553868,0.356189 0.294647,0.188267 0.294647,0.188267 1.034156,0.658557 1.034156,0.658558 0.376534,0.24128 0.376535,0.24128 0.161371,-0.02239 0.161372,-0.02239 z m -6.606924,-12.338651 0.152052,-0.123485 1.311632,-0.938879 1.311632,-0.938879 0.275191,-0.201547 0.27519,-0.201547 0.134477,-0.0921 0.134476,-0.0921 0.295848,-0.220992 0.295849,-0.220992 0.295848,-0.214753 0.295848,-0.214753 0.242058,-0.174764 0.242058,-0.174763 0.591696,-0.424184 0.591697,-0.424183 0.177131,-0.12401 0.177131,-0.12401 0.280089,-0.204817 0.280089,-0.204817 0.715643,-0.530345 0.715644,-0.530345 0.360168,-0.250032 0.360169,-0.250038 0.273325,-0.198193 0.273325,-0.198193 0.552885,-0.40343 0.552885,-0.403429 0.874398,-0.6454882 0.874399,-0.645487 0.363377,-0.259885 0.363377,-0.259884 -0.02795,-0.197336 -0.02795,-0.197335 -0.06037,-0.15442 -0.06037,-0.1544206 -0.173681,0.036762 -0.173681,0.036762 -0.242058,0.04428 -0.242057,0.04428 -0.779964,0.142919 -0.779964,0.142919 -0.941335,0.159136 -0.941336,0.159136 -2.178519,0.428809 -2.178519,0.428809 -3.308122,0.6480808 -3.308122,0.648082 -0.376534,0.07946 -0.376534,0.07946 -1.022022,0.186575 -1.022021,0.186577 -0.887545,0.167031 -0.887545,0.167031 -0.268953,0.04577 -0.268953,0.04577 -0.242057,0.05432 -0.242058,0.05432 -0.448841,0.06066 -0.448842,0.06066 -0.137495,0.05227 -0.137495,0.05228 0.179584,0.132492 0.179584,0.132493 0.03022,0.043 0.03022,0.043 0.779964,0.617665 0.779964,0.617664 0.242058,0.186171 0.242057,0.18617 1.694404,1.348106 1.694404,1.348105 1.17994,0.925152 1.179941,0.925152 h 0.09346 0.09346 z"
       id="path12" /></g><g
     id="g13"><path
       style="fill:#3b4cf9;fill-opacity:1"
       d="m 10.15839,10.689672 -0.3137541,0.190465 -0.3137542,0.190465 -0.268953,0.10557 -0.268953,0.105569 -0.4226308,0.0871 -0.4226308,0.0871 H 7.7552391 7.3627638 L 6.8433993,11.351469 6.3240349,11.246992 5.9372063,11.055738 5.5503777,10.864485 5.175562,10.581967 4.8007463,10.299449 4.4935775,9.9326858 4.1864088,9.5659228 3.9697532,9.1258268 3.7530977,8.6857308 3.6311815,8.2554058 3.5092654,7.8250809 3.5117188,7.1258031 3.5141722,6.4265253 3.6091699,6.0768864 3.7041677,5.7272476 3.8789409,5.3507134 4.0537142,4.9741792 4.1992359,4.7590168 4.3447576,4.5438544 4.6786147,4.2000633 5.0124718,3.8562722 5.3976426,3.6025651 l 0.3851708,-0.253707 0.354234,-0.1418096 0.354234,-0.1418096 0.4644821,-0.080999 0.464482,-0.080999 0.3560405,0.00188 0.3560405,0.00188 0.4046244,0.072198 0.4046244,0.072198 0.3653019,0.1461438 0.365302,0.1461438 0.2179755,0.1238124 0.2179753,0.1238123 0.365368,0.3005765 0.365368,0.3005766 0.273439,0.3639666 0.27344,0.3639667 0.186631,0.3765342 0.186632,0.3765342 0.115975,0.4841153 0.115975,0.4841154 -7.37e-4,0.4841154 -7.38e-4,0.4841154 -0.09286,0.4034295 -0.09286,0.403429 -0.106406,0.286597 -0.106405,0.286596 c -0.456857,0.8016832 -0.903771,1.303399 -1.432562,1.699695 z"
       id="path13" /><path
       style="fill:#3b4cf9;fill-opacity:1;stroke-width:1.04959"
       d="m 10.181375,24.120453 -0.3293125,0.199909 -0.3293125,0.19991 -0.2822896,0.110805 -0.2822897,0.110804 -0.4435879,0.09142 -0.4435879,0.09142 H 7.6590581 7.247121 L 6.7020026,24.815066 6.1568843,24.705408 5.750874,24.504671 5.3448636,24.303934 4.9514618,24.007407 4.55806,23.710879 4.2356595,23.325929 3.9132591,22.940979 3.6858602,22.47906 3.4584613,22.01714 3.3304996,21.565477 3.202538,21.113814 l 0.00257,-0.733953 0.00257,-0.733953 0.099709,-0.366977 0.099709,-0.366977 0.1834397,-0.395205 0.1834399,-0.395205 0.1527377,-0.225833 0.1527377,-0.225831 0.3504122,-0.360839 0.3504122,-0.360838 0.4042703,-0.266288 0.4042704,-0.266288 0.3717995,-0.148842 0.3717995,-0.148841 0.4875146,-0.08502 0.4875144,-0.08502 0.3736956,0.002 0.3736955,0.002 0.4246887,0.07578 0.4246886,0.07578 0.3834162,0.15339 0.3834164,0.153391 0.2287847,0.129952 0.2287842,0.129952 0.383486,0.315481 0.383486,0.315481 0.286998,0.382016 0.286999,0.382014 0.195885,0.395205 0.195887,0.395206 0.121726,0.508121 0.121726,0.508121 -7.74e-4,0.508122 -7.74e-4,0.508121 -0.09746,0.423435 -0.09746,0.423434 -0.111682,0.300809 -0.111682,0.300807 c -0.479511,0.841437 -0.948586,1.368031 -1.503598,1.783979 z"
       id="path14" /><path
       style="fill:#3b4cf9;fill-opacity:1;stroke-width:1.04959"
       d="m 10.223433,37.284731 -0.3293121,0.199909 -0.3293125,0.19991 -0.2822896,0.110805 -0.2822897,0.110804 -0.4435879,0.09142 -0.4435879,0.09142 H 7.7011165 7.2891794 L 6.744061,37.979344 6.1989427,37.869686 5.7929324,37.668949 5.386922,37.468212 4.9935202,37.171685 4.6001184,36.875157 4.2777179,36.490207 3.9553175,36.105257 3.7279186,35.643338 3.5005197,35.181418 3.372558,34.729755 3.2445964,34.278092 l 0.00257,-0.733953 0.00257,-0.733953 0.099709,-0.366977 0.099709,-0.366977 0.1834397,-0.395205 0.1834399,-0.395205 0.1527377,-0.225833 0.1527377,-0.225831 0.3504122,-0.360839 0.3504122,-0.360838 0.4042703,-0.266288 0.4042704,-0.266288 0.3717995,-0.148842 0.3717995,-0.148841 0.4875146,-0.08502 0.4875144,-0.08502 0.3736956,0.002 0.3736955,0.002 0.4246887,0.07578 0.4246886,0.07578 0.3834162,0.15339 0.3834164,0.153391 0.2287847,0.129952 0.2287838,0.129952 0.383486,0.315481 0.383486,0.315481 0.286998,0.382016 0.286999,0.382014 0.195885,0.395205 0.195887,0.395206 0.121726,0.508121 0.121726,0.508121 -7.74e-4,0.508122 -7.74e-4,0.508121 -0.09746,0.423435 -0.09746,0.423434 -0.111682,0.300809 -0.111682,0.300807 c -0.479511,0.841437 -0.948586,1.368031 -1.503598,1.783979 z"
       id="path15" /><path
       style="fill:#3bf956;fill-opacity:1;stroke-width:1.04959"
       d="m 44.20368,10.727349 -0.329313,0.199909 -0.329312,0.19991 -0.28229,0.110805 -0.282289,0.110804 -0.443588,0.09142 -0.443588,0.09142 h -0.411937 -0.411937 l -0.545119,-0.109655 -0.545118,-0.109658 -0.40601,-0.200737 -0.406011,-0.200737 -0.393401,-0.296527 -0.393402,-0.296528 -0.322401,-0.3849507 -0.3224,-0.38495 -0.227399,-0.461919 -0.227399,-0.46192 -0.127962,-0.451663 -0.127961,-0.451663 0.0026,-0.733953 0.0026,-0.733953 0.09971,-0.366977 0.09971,-0.366977 0.18344,-0.395205 0.183439,-0.395205 0.152738,-0.225833 0.152738,-0.225831 0.350412,-0.360839 0.350412,-0.360838 0.404271,-0.266288 0.40427,-0.266288 0.371799,-0.148842 0.3718,-0.148841 0.487515,-0.08502 0.487514,-0.08502 0.373696,0.002 0.373695,0.002 0.424689,0.07578 0.424688,0.07578 0.383417,0.15339 0.383416,0.153391 0.228785,0.129952 0.228784,0.129952 0.383486,0.315481 0.383486,0.315481 0.286998,0.382016 0.286999,0.382014 0.195885,0.395205 0.195887,0.395206 0.121726,0.508121 0.121726,0.508121 -7.74e-4,0.508122 -7.74e-4,0.508121 -0.09746,0.423435 -0.09746,0.423434 -0.111682,0.300809 -0.111682,0.300807 c -0.479511,0.841437 -0.948586,1.3680317 -1.503598,1.7839797 z"
       id="path16" /><path
       style="fill:#3bf956;fill-opacity:1;stroke-width:1.04959"
       d="m 44.20368,22.167233 -0.329313,0.199909 -0.329312,0.19991 -0.28229,0.110805 -0.282289,0.110804 -0.443588,0.09142 -0.443588,0.09142 h -0.411937 -0.411937 l -0.545119,-0.109655 -0.545118,-0.109658 -0.40601,-0.200737 -0.406011,-0.200737 -0.393401,-0.296527 -0.393402,-0.296528 -0.322401,-0.384951 -0.3224,-0.38495 -0.227399,-0.461919 -0.227399,-0.46192 -0.127962,-0.451663 -0.127961,-0.451663 0.0026,-0.733953 0.0026,-0.733953 0.09971,-0.366977 0.09971,-0.366977 0.18344,-0.395205 0.183439,-0.395205 0.152738,-0.225833 0.152738,-0.225831 0.350412,-0.360839 0.350412,-0.360838 0.404271,-0.266288 0.40427,-0.266288 0.371799,-0.148842 0.3718,-0.148841 0.487515,-0.08502 0.487514,-0.08502 0.373696,0.002 0.373695,0.002 0.424689,0.07578 0.424688,0.07578 0.383417,0.15339 0.383416,0.153391 0.228785,0.129952 0.228784,0.129952 0.383486,0.315481 0.383486,0.315481 0.286998,0.382016 0.286999,0.382014 0.195885,0.395205 0.195887,0.395206 0.121726,0.508121 0.121726,0.508121 -7.74e-4,0.508122 -7.74e-4,0.508121 -0.09746,0.423435 -0.09746,0.423434 -0.111682,0.300809 -0.111682,0.300807 c -0.479511,0.841437 -0.948586,1.368032 -1.503598,1.78398 z"
       id="path17" /><path
       style="fill:#3bf956;fill-opacity:1;stroke-width:1.04959"
       d="m 44.20368,33.060357 -0.329313,0.199909 -0.329312,0.19991 -0.28229,0.110805 -0.282289,0.110804 -0.443588,0.09142 -0.443588,0.09142 h -0.411937 -0.411937 l -0.545119,-0.109655 -0.545118,-0.109658 -0.40601,-0.200737 -0.406011,-0.200737 -0.393401,-0.296527 -0.393402,-0.296528 -0.322401,-0.384951 -0.3224,-0.38495 -0.227399,-0.461919 -0.227399,-0.46192 -0.127962,-0.451663 -0.127961,-0.451663 0.0026,-0.733953 0.0026,-0.733953 0.09971,-0.366977 0.09971,-0.366977 0.18344,-0.395205 0.183439,-0.395205 0.152738,-0.225833 0.152738,-0.225831 0.350412,-0.360839 0.350412,-0.360838 0.404271,-0.266288 0.40427,-0.266288 0.371799,-0.148842 0.3718,-0.148841 0.487515,-0.08502 0.487514,-0.08502 0.373696,0.002 0.373695,0.002 0.424689,0.07578 0.424688,0.07578 0.383417,0.15339 0.383416,0.153391 0.228785,0.129952 0.228784,0.129952 0.383486,0.315481 0.383486,0.315481 0.286998,0.382016 0.286999,0.382014 0.195885,0.395205 0.195887,0.395206 0.121726,0.508121 0.121726,0.508121 -7.74e-4,0.508122 -7.74e-4,0.508121 -0.09746,0.423435 -0.09746,0.423434 -0.111682,0.300809 -0.111682,0.300807 c -0.479511,0.841437 -0.948586,1.368032 -1.503598,1.78398 z"
       id="path18" /><path
       style="fill:#3bf956;fill-opacity:1;stroke-width:1.04959"
       d="m 44.161622,44.037598 -0.329313,0.199909 -0.329312,0.19991 -0.28229,0.110805 -0.282289,0.110804 -0.443588,0.09142 -0.443588,0.09142 h -0.411937 -0.411937 l -0.545119,-0.109655 -0.545118,-0.109658 -0.40601,-0.200737 -0.406011,-0.200737 -0.393401,-0.296527 -0.393402,-0.296528 -0.322401,-0.384951 -0.3224,-0.38495 -0.227399,-0.461919 -0.227399,-0.46192 -0.127962,-0.451663 -0.127961,-0.451663 0.0026,-0.733953 0.0026,-0.733953 0.09971,-0.366977 0.09971,-0.366977 0.18344,-0.395205 0.183439,-0.395205 0.152738,-0.225833 0.152738,-0.225831 0.350412,-0.360839 0.350412,-0.360838 0.404271,-0.266288 0.40427,-0.266288 0.371799,-0.148842 0.3718,-0.148841 0.487515,-0.08502 0.487514,-0.08502 0.373696,0.002 0.373695,0.002 0.424689,0.07578 0.424688,0.07578 0.383417,0.15339 0.383416,0.153391 0.228785,0.129952 0.228784,0.129952 0.383486,0.315481 0.383486,0.315481 0.286998,0.382016 0.286999,0.382014 0.195885,0.395205 0.195887,0.395206 0.121726,0.508121 0.121726,0.508121 -7.74e-4,0.508122 -7.74e-4,0.508121 -0.09746,0.423435 -0.09746,0.423434 -0.111682,0.300809 -0.111682,0.300807 c -0.479511,0.841437 -0.948586,1.368032 -1.503598,1.78398 z"
       id="path19" /></g></svg>
