<?xml version="1.0" encoding="UTF-8" standalone="no"?>
<!-- Created with Inkscape (http://www.inkscape.org/) -->

<svg
   width="48"
   height="48"
   viewBox="0 0 48 48"
   version="1.1"
   id="svg1"
   xml:space="preserve"
   xmlns:xlink="http://www.w3.org/1999/xlink"
   xmlns="http://www.w3.org/2000/svg"
   xmlns:svg="http://www.w3.org/2000/svg"><defs
     id="defs1"><linearGradient
       id="linearGradient205"><stop
         style="stop-color:#e6faff;stop-opacity:1;"
         offset="0.18187129"
         id="stop199" /><stop
         style="stop-color:#db99f5;stop-opacity:1;"
         offset="0.22435898"
         id="stop200" /><stop
         style="stop-color:#b08bf4;stop-opacity:1;"
         offset="0.25909597"
         id="stop201" /><stop
         style="stop-color:#c182e9;stop-opacity:1;"
         offset="0.81734025"
         id="stop202" /><stop
         style="stop-color:#723b8d;stop-opacity:1;"
         offset="0.86408299"
         id="stop203" /><stop
         style="stop-color:#733b8d;stop-opacity:1;"
         offset="0.94658661"
         id="stop204" /><stop
         style="stop-color:#50255c;stop-opacity:1;"
         offset="0.97596967"
         id="stop205" /></linearGradient><linearGradient
       id="linearGradient146"><stop
         style="stop-color:#e6faff;stop-opacity:1;"
         offset="0.18187129"
         id="stop149" /><stop
         style="stop-color:#99e3f5;stop-opacity:1;"
         offset="0.22435898"
         id="stop150" /><stop
         style="stop-color:#8bdff4;stop-opacity:1;"
         offset="0.45706552"
         id="stop147" /><stop
         style="stop-color:#82d4e9;stop-opacity:1;"
         offset="0.69551283"
         id="stop151" /><stop
         style="stop-color:#3b7c8d;stop-opacity:1;"
         offset="0.73717946"
         id="stop148" /><stop
         style="stop-color:#3b7c8d;stop-opacity:1;"
         offset="0.92628205"
         id="stop152" /><stop
         style="stop-color:#25505c;stop-opacity:1;"
         offset="0.94551283"
         id="stop153" /></linearGradient><radialGradient
       xlink:href="#linearGradient146"
       id="radialGradient149"
       cx="-968.73627"
       cy="-26.162949"
       fx="-968.73627"
       fy="-26.162949"
       r="141.59126"
       gradientUnits="userSpaceOnUse"
       gradientTransform="matrix(1.2294824,0.02437125,-0.02497,1.259688,221.6546,30.403521)" /><radialGradient
       xlink:href="#linearGradient205"
       id="radialGradient153"
       gradientUnits="userSpaceOnUse"
       gradientTransform="matrix(1.2294824,0.02437125,-0.02497,1.259688,586.6546,30.403521)"
       cx="-968.73627"
       cy="-26.162949"
       fx="-968.73627"
       fy="-26.162949"
       r="141.59126" /></defs><g
     id="g208"
     transform="matrix(0.05898203,0,0,0.05898203,66.381074,34.518173)"
     style="display:inline"><path
       style="display:inline;fill:#5e5e5e;fill-opacity:1;stroke:#2f2f34;stroke-width:14.482;stroke-linecap:round;stroke-linejoin:round;stroke-dasharray:none;stroke-opacity:1"
       id="rect153"
       width="424"
       height="532"
       x="-747"
       y="-517"
       d="m -726.6,-517 h 382.4 a 21.2,21.2 45 0 1 21.2,21.2 V -8.4 A 23.4,23.4 135 0 1 -346.4,15 H -727.8 A 19.2,19.2 45 0 1 -747,-4.2 l 0,-492.4 a 20.4,20.4 135 0 1 20.4,-20.4 z" /><g
       id="g256"
       style="display:inline"
       transform="translate(24.999989)"><rect
         style="display:inline;fill:#ffffff;fill-opacity:1;stroke:none;stroke-width:5.348;stroke-linecap:round;stroke-linejoin:round;stroke-dasharray:none;stroke-opacity:1"
         id="rect255"
         width="49.851028"
         height="37.476658"
         x="-159.98291"
         y="-29.698484"
         transform="matrix(2.6149924,0,0,2.6149924,-278.81173,-435.10809)" /><rect
         style="display:inline;fill:#ffd9aa;fill-opacity:1;stroke:none;stroke-width:13.985;stroke-linecap:round;stroke-linejoin:round;stroke-dasharray:none;stroke-opacity:1"
         id="rect256"
         width="130.36006"
         height="98.001175"
         x="-567.06995"
         y="-514.0769"
         transform="translate(-1.1113718e-5)" /><rect
         style="display:inline;fill:#d45500;fill-opacity:1;stroke:none;stroke-width:13.985;stroke-linecap:round;stroke-linejoin:round;stroke-dasharray:none;stroke-opacity:1"
         id="rect257"
         width="130.36006"
         height="98.001175"
         x="-696.51208"
         y="-417.97592" /><rect
         style="display:inline;fill:#000000;fill-opacity:1;stroke:none;stroke-width:13.985;stroke-linecap:round;stroke-linejoin:round;stroke-dasharray:none;stroke-opacity:1"
         id="rect258"
         width="130.36006"
         height="98.001175"
         x="-567.72369"
         y="-415.36093" /><rect
         style="display:inline;fill:#ffcc00;fill-opacity:1;stroke:none;stroke-width:13.985;stroke-linecap:round;stroke-linejoin:round;stroke-dasharray:none;stroke-opacity:1"
         id="rect259"
         width="130.36006"
         height="98.001175"
         x="-567.72369"
         y="-311.41498" /><rect
         style="display:inline;fill:#2a2aff;fill-opacity:1;stroke:none;stroke-width:13.985;stroke-linecap:round;stroke-linejoin:round;stroke-dasharray:none;stroke-opacity:1"
         id="rect260"
         width="130.36006"
         height="98.001175"
         x="-694.55084"
         y="-312.06873" /><rect
         style="display:inline;fill:#800000;fill-opacity:1;stroke:none;stroke-width:14.3987;stroke-linecap:round;stroke-linejoin:round;stroke-dasharray:none;stroke-opacity:1"
         id="rect261"
         width="130.36006"
         height="103.88491"
         x="-699.12708"
         y="-206.16153" /><rect
         style="display:inline;fill:#00ff00;fill-opacity:1;stroke:none;stroke-width:14.3987;stroke-linecap:round;stroke-linejoin:round;stroke-dasharray:none;stroke-opacity:1"
         id="rect262"
         width="130.36006"
         height="103.88491"
         x="-564.45496"
         y="-202.89279" /><rect
         style="display:inline;fill:#d45500;fill-opacity:1;stroke:none;stroke-width:13.985;stroke-linecap:round;stroke-linejoin:round;stroke-dasharray:none;stroke-opacity:1"
         id="rect263"
         width="130.36006"
         height="98.001175"
         x="-565.22748"
         y="-92.538048" /><rect
         style="display:inline;fill:#c000d4;fill-opacity:1;stroke:none;stroke-width:13.985;stroke-linecap:round;stroke-linejoin:round;stroke-dasharray:none;stroke-opacity:1"
         id="rect264"
         width="130.36006"
         height="98.001175"
         x="-700.21021"
         y="-96.236206" /></g><g
       id="g199"
       transform="translate(25)"><use
         x="0"
         y="0"
         xlink:href="#use153"
         id="use197" /><use
         x="0"
         y="0"
         xlink:href="#use153"
         transform="translate(130.338)"
         id="use198" /><use
         x="0"
         y="0"
         xlink:href="#use153"
         transform="translate(260.676)"
         id="use199" /><path
         style="fill:#5e5e5e;fill-opacity:1;stroke:#2f2f34;stroke-width:14.482;stroke-linecap:round;stroke-linejoin:round;stroke-dasharray:none;stroke-opacity:1"
         d="M -696.5,-514.81802 V 13.435029"
         id="path153" /><use
         x="0"
         y="0"
         xlink:href="#path153"
         id="use153" /></g><circle
       style="fill:url(#radialGradient149);fill-opacity:1;stroke:#2f2f34;stroke-width:15.2432;stroke-linecap:round;stroke-linejoin:round;stroke-dasharray:none;stroke-opacity:1"
       id="path134"
       cx="-922.0672"
       cy="40.305088"
       r="133.96967" /><circle
       style="fill:url(#radialGradient153);fill-opacity:1;stroke:#2f2f34;stroke-width:15.2432;stroke-linecap:round;stroke-linejoin:round;stroke-dasharray:none;stroke-opacity:1"
       id="circle153"
       cx="-557.0672"
       cy="40.305088"
       r="133.96967" /><path
       style="display:inline;fill:#ffd9aa;fill-opacity:1;stroke:#2f2f34;stroke-width:5.348;stroke-linecap:round;stroke-linejoin:round;stroke-dasharray:none;stroke-opacity:1"
       d="M -187.02974,7.3033008 H -27.930718"
       id="path222"
       transform="matrix(2.6149924,0,0,2.6149924,-253.81173,-435.10809)" /><use
       x="0"
       y="0"
       xlink:href="#path222"
       transform="translate(0,104.43234)"
       id="use252"
       style="display:inline" /><use
       x="0"
       y="0"
       xlink:href="#path222"
       transform="translate(0,206.24968)"
       id="use253"
       style="display:inline" /><use
       x="0"
       y="0"
       xlink:href="#path222"
       transform="translate(0,321.14199)"
       id="use254"
       style="display:inline" /><path
       style="display:inline;fill:#ffda7f;fill-opacity:1;stroke:#e98c33;stroke-width:14.482;stroke-linecap:round;stroke-linejoin:round;stroke-dasharray:none;stroke-opacity:1"
       d="m -986,-500.5 c -28.3333,2.03915 -52.0073,5.85954 -85,31 -32.9927,25.14046 -39.4644,68.24266 -33.5,106 5.9644,37.75734 35.2161,59.60046 56.0962,91.5 7.641,11.67352 7.1416,28.87796 7.4749,38.85355 l 54.9193,0.70027 M -986,-500.5 c 28.3333,2.03915 52.0073,5.85954 85,31 32.9927,25.14046 39.4644,68.24266 33.5,106 -5.9644,37.75734 -35.2161,59.60046 -56.0962,91.5 -7.641,11.67352 -7.1416,28.87796 -7.4749,38.85355 l -54.9193,0.70027"
       id="path205" /><path
       style="display:inline;fill:#ffda7f;fill-opacity:1;stroke:#e98c33;stroke-width:14.482;stroke-linecap:round;stroke-linejoin:round;stroke-dasharray:none;stroke-opacity:1"
       d="m -990.5,-222.75 -58.5,-1.5 c -3.6259,0.54663 -6.2069,2.28737 -7.5,5.5 l -0.5,13.5 c 3.2714,3.33333 4.2511,6.66667 6,10 l -0.75,26.25 c 5.4035,13.72712 15.2397,19.57378 24.75,26 0.3948,13.96325 10.8883,20.28455 21.4268,23.18198 L -990.75,-119 m 0.25,-103.75 58.5,-1.5 c 3.6259,0.54663 6.2069,2.28737 7.5,5.5 l 0.5,13.5 c -3.2714,3.33333 -4.2511,6.66667 -6,10 l 0.75,26.25 c -5.4035,13.72712 -15.2397,19.57378 -24.75,26 -0.3948,13.96325 -10.8883,20.28455 -21.4268,23.18198 L -990.25,-119"
       id="path207" /></g></svg>
