<?xml version="1.0" encoding="UTF-8" standalone="no"?>
<!-- Created with Inkscape (http://www.inkscape.org/) -->

<svg
   width="48"
   height="48"
   viewBox="0 0 48 48"
   version="1.1"
   id="svg1"
   xml:space="preserve"
   xmlns:xlink="http://www.w3.org/1999/xlink"
   xmlns="http://www.w3.org/2000/svg"
   xmlns:svg="http://www.w3.org/2000/svg"><defs
     id="defs1"><linearGradient
       id="linearGradient7196"><stop
         style="stop-color:#9caffd;stop-opacity:1;"
         offset="0"
         id="stop7198" /><stop
         style="stop-color:#7041fc;stop-opacity:1;"
         offset="1"
         id="stop7200" /></linearGradient><linearGradient
       id="linearGradient7180"><stop
         style="stop-color:#89fdc8;stop-opacity:1;"
         offset="0"
         id="stop7182" /><stop
         style="stop-color:#24fb18;stop-opacity:1;"
         offset="1"
         id="stop7184" /></linearGradient><radialGradient
       xlink:href="#linearGradient7180"
       id="radialGradient7186"
       cx="23.309221"
       cy="16.573383"
       fx="23.309221"
       fy="16.573383"
       r="23.313486"
       gradientTransform="matrix(1,0,0,0.89503272,0,2.5103442)"
       gradientUnits="userSpaceOnUse" /><radialGradient
       xlink:href="#linearGradient7196"
       id="radialGradient7202"
       cx="22.83378"
       cy="16.907679"
       fx="22.83378"
       fy="16.907679"
       r="10.833886"
       gradientTransform="matrix(1,0,0,0.87412587,0,2.5293823)"
       gradientUnits="userSpaceOnUse" /></defs><g
     id="layer1"><g
       id="layer1-4"
       transform="translate(-0.1290966,-0.0247515)"><path
         style="display:inline;fill:url(#radialGradient7186);fill-opacity:1;stroke:none"
         d="M 0.78144804,16.29519 C 9.6557569,10.516612 17.739648,6.3718408 26.426284,3.0491587 33.726658,8.8231615 39.806072,14.435844 47.408423,22.790347 37.355625,28.286804 27.847167,36.520317 18.344275,44.781827 12.775425,34.463759 7.1155265,24.408066 0.78144804,16.29519 Z"
         id="path6523" /><path
         style="fill:url(#radialGradient7202);fill-opacity:1;stroke:none;stroke-width:0.5;stroke-linecap:butt;stroke-linejoin:miter;stroke-miterlimit:4;stroke-dasharray:none;stroke-opacity:1"
         d="m 12.071323,17.644916 c 4.000422,-2.695776 8.09623,-5.176932 12.475384,-7.02056 3.443288,3.00174 6.511002,6.332106 9.192388,10.00051 -4.89343,2.590986 -8.862412,5.798271 -12.929953,8.93985 -2.463702,-4.014076 -5.230815,-8.00057 -8.737819,-11.9198 z"
         id="path7087" /><path
         style="fill:none;stroke:#ce5c00;stroke-width:0.5;stroke-linecap:butt;stroke-linejoin:miter;stroke-miterlimit:4;stroke-dasharray:none;stroke-opacity:1"
         d="M 7.1926569,12.408322 C 14.58328,19.551161 20.527482,28.497617 25.960015,38.082098"
         id="path6525" /><path
         style="fill:none;stroke:#ce5c00;stroke-width:0.5;stroke-linecap:butt;stroke-linejoin:miter;stroke-miterlimit:4;stroke-dasharray:none;stroke-opacity:1"
         d="m 13.331875,8.9817435 c 2.947026,2.7900155 6.633838,5.5152215 9.544817,8.8609815 3.876189,4.455134 6.645464,9.698986 10.116224,14.71593"
         id="path6527" /><path
         style="fill:none;stroke:#ce5c00;stroke-width:0.5;stroke-linecap:butt;stroke-linejoin:miter;stroke-miterlimit:4;stroke-dasharray:none;stroke-opacity:1"
         d="m 18.888255,6.3223081 c 3.260118,2.406596 6.713148,5.0258609 10.271786,8.8252609 3.479338,3.714733 7.068189,8.58915 9.933237,12.757077"
         id="path6529" /><path
         style="fill:none;stroke:#ce5c00;stroke-width:0.5;stroke-linecap:butt;stroke-linejoin:miter;stroke-miterlimit:4;stroke-dasharray:none;stroke-opacity:1"
         d="M 3.889913,14.4029 C 10.775084,21.922635 16.644263,31.293979 22.191,41.252963"
         id="path6531" /><path
         style="fill:none;stroke:#ce5c00;stroke-width:0.5;stroke-linecap:butt;stroke-linejoin:miter;stroke-miterlimit:4;stroke-dasharray:none;stroke-opacity:1"
         d="M 10.339978,10.771749 C 18.374831,17.3293 24.237471,26.004714 29.495893,35.269234"
         id="path6533" /><path
         style="fill:none;stroke:#ce5c00;stroke-width:0.5;stroke-linecap:butt;stroke-linejoin:miter;stroke-miterlimit:4;stroke-dasharray:none;stroke-opacity:1"
         d="m 16.090638,7.7031704 c 2.932978,1.992397 6.549655,4.7708666 9.876066,8.4884536 4.20783,4.702653 8.021147,10.509023 10.173533,13.707597"
         id="path6535" /><path
         style="fill:none;stroke:#ce5c00;stroke-width:0.5;stroke-linecap:butt;stroke-linejoin:miter;stroke-miterlimit:4;stroke-dasharray:none;stroke-opacity:1"
         d="m 21.491596,5.350592 c 8.877525,5.950124 14.944277,13.245564 20.438156,20.815191"
         id="path6537" /><path
         style="fill:none;stroke:#ce5c00;stroke-width:0.5;stroke-linecap:butt;stroke-linejoin:miter;stroke-miterlimit:4;stroke-dasharray:none;stroke-opacity:1"
         d="M 23.745232,4.0208753 C 31.328859,9.0914221 39.130691,17.771927 44.688515,24.375779"
         id="path6539" /><path
         style="fill:none;stroke:#ce5c00;stroke-width:0.5;stroke-linecap:butt;stroke-linejoin:miter;stroke-miterlimit:4;stroke-dasharray:none;stroke-opacity:1"
         d="M 2.2579689,18.187479 C 11.241375,11.900105 21.097111,6.9325998 28.33022,4.6345909"
         id="path6541" /><path
         style="fill:none;stroke:#ce5c00;stroke-width:0.5;stroke-linecap:butt;stroke-linejoin:miter;stroke-miterlimit:4;stroke-dasharray:none;stroke-opacity:1"
         d="M 3.9676247,20.437771 C 14.802332,11.617229 24.056314,8.1132414 30.311865,6.3223081"
         id="path6543" /><path
         style="fill:none;stroke:#ce5c00;stroke-width:0.5;stroke-linecap:butt;stroke-linejoin:miter;stroke-miterlimit:4;stroke-dasharray:none;stroke-opacity:1"
         d="M 5.4830012,22.892634 C 17.890958,12.127886 27.967565,9.1820944 32.332368,8.0100279"
         id="path6545" /><path
         style="fill:none;stroke:#ce5c00;stroke-width:0.5;stroke-linecap:butt;stroke-linejoin:miter;stroke-miterlimit:4;stroke-dasharray:none;stroke-opacity:1"
         d="M 7.3869361,25.552068 C 19.402287,14.273852 28.99766,11.852909 34.314014,9.8511764"
         id="path6547" /><path
         style="fill:none;stroke:#ce5c00;stroke-width:0.5;stroke-linecap:butt;stroke-linejoin:miter;stroke-miterlimit:4;stroke-dasharray:none;stroke-opacity:1"
         d="M 9.2131593,28.774076 C 12.394197,25.747978 19.247732,19.803744 24.332161,17.125069 c 3.951642,-2.08188 10.422366,-4.432482 12.23549,-5.074747"
         id="path6549" /><path
         style="fill:none;stroke:#ce5c00;stroke-width:0.5;stroke-linecap:butt;stroke-linejoin:miter;stroke-miterlimit:4;stroke-dasharray:none;stroke-opacity:1"
         d="m 11.233662,32.200655 c 4.963374,-4.338351 9.743555,-8.685252 14.897201,-11.829418 4.808118,-2.933366 9.993085,-4.517757 12.884703,-6.019481"
         id="path6551" /><path
         style="fill:none;stroke:#ce5c00;stroke-width:0.5;stroke-linecap:butt;stroke-linejoin:miter;stroke-miterlimit:4;stroke-dasharray:none;stroke-opacity:1"
         d="m 13.448443,36.036379 c 4.523411,-3.914197 9.680291,-8.648515 14.851546,-12.047656 4.037442,-2.653869 10.448703,-5.816515 13.47434,-6.977531"
         id="path6553" /><path
         style="fill:none;stroke:#ce5c00;stroke-width:0.5;stroke-linecap:butt;stroke-linejoin:miter;stroke-miterlimit:4;stroke-dasharray:none;stroke-opacity:1"
         d="M 15.857504,40.230102 C 25.602672,31.040845 36.402519,23.687617 44.455381,19.875198"
         id="path6555" /><path
         id="path7065"
         d="M 0.78144804,16.29519 C 9.6557569,10.516612 17.739648,6.3718408 26.426284,3.0491587 33.726658,8.8231615 39.806072,14.435844 47.408423,22.790347 37.355625,28.286804 27.847167,36.520317 18.344275,44.781827 12.775425,34.463759 7.1155265,24.408066 0.78144804,16.29519 Z"
         style="fill:none;stroke:#612b00;stroke-width:1;stroke-linecap:butt;stroke-linejoin:miter;stroke-miterlimit:4;stroke-dasharray:none;stroke-opacity:1" /><path
         style="fill:none;stroke:#c4a000;stroke-width:0.5;stroke-linecap:butt;stroke-linejoin:miter;stroke-miterlimit:4;stroke-dasharray:none;stroke-opacity:1"
         d="m 18.515635,13.553737 c 1.519494,1.342858 3.02232,2.750299 4.361057,4.288988 1.77837,2.043986 3.323744,4.25399 4.810764,6.531932"
         id="path7130" /><path
         style="fill:none;stroke:#c4a000;stroke-width:0.5;stroke-linecap:butt;stroke-linejoin:miter;stroke-miterlimit:4;stroke-dasharray:none;stroke-opacity:1"
         d="m 15.404979,15.453973 c 3.311947,3.442138 6.232199,7.266172 8.916945,11.31982"
         id="path7136" /><path
         style="fill:none;stroke:#c4a000;stroke-width:0.5;stroke-linecap:butt;stroke-linejoin:miter;stroke-miterlimit:4;stroke-dasharray:none;stroke-opacity:1"
         d="m 21.592075,11.904709 c 1.460255,1.263442 2.944277,2.688358 4.374629,4.286915 1.731796,1.935449 3.396767,4.057852 4.906627,6.108467"
         id="path7124" /><path
         style="fill:none;stroke:#c4a000;stroke-width:0.5;stroke-linecap:butt;stroke-linejoin:miter;stroke-miterlimit:4;stroke-dasharray:none;stroke-opacity:1"
         d="M 13.974964,20.014339 C 18.815311,16.409905 23.121095,14.202673 26.73505,12.67883"
         id="path7142" /><path
         style="fill:none;stroke:#c4a000;stroke-width:0.5;stroke-linecap:butt;stroke-linejoin:miter;stroke-miterlimit:4;stroke-dasharray:none;stroke-opacity:1"
         d="m 16.161309,22.737391 c 2.718195,-2.170665 5.660204,-4.289614 8.170852,-5.612322 1.376248,-0.725062 3.058045,-1.482717 4.742225,-2.18945"
         id="path7148" /><path
         style="fill:none;stroke:#c4a000;stroke-width:0.5;stroke-linecap:butt;stroke-linejoin:miter;stroke-miterlimit:4;stroke-dasharray:none;stroke-opacity:1"
         d="m 18.479152,25.946602 c 2.502758,-2.063529 5.028869,-3.975206 7.651711,-5.575365 1.747513,-1.066133 3.544807,-1.954072 5.263683,-2.724612"
         id="path7154" /><path
         style="fill:none;stroke:#00b0d1;stroke-width:1.5;stroke-linecap:butt;stroke-linejoin:miter;stroke-miterlimit:4;stroke-dasharray:3, 1.5;stroke-dashoffset:0;stroke-opacity:1"
         d="m 12.071323,17.644916 c 4.000422,-2.695776 8.09623,-5.176932 12.475384,-7.02056 3.443288,3.00174 6.511002,6.332106 9.192388,10.00051 -4.89343,2.590986 -8.862412,5.798271 -12.929953,8.93985 -2.463702,-4.014076 -5.230815,-8.00057 -8.737819,-11.9198 z"
         id="path7158" /><path
         style="fill:none;stroke:#ffffff;stroke-width:0.5;stroke-linecap:butt;stroke-linejoin:miter;stroke-miterlimit:4;stroke-dasharray:none;stroke-opacity:1"
         d="M 1.6743052,16.587395 C 10.208747,11.030399 17.983042,7.0445615 26.336998,3.8492894 33.357783,9.401885 39.204369,14.799346 46.515566,22.833491 36.847769,28.119184 27.703464,36.036978 18.564513,43.981696 13.208938,34.05928 7.7658019,24.389178 1.6743052,16.587395 Z"
         id="path7178" /></g></g></svg>
