<?xml version="1.0" encoding="UTF-8" standalone="no"?>
<!-- Created with Inkscape (http://www.inkscape.org/) -->

<svg
   width="48"
   height="48"
   viewBox="0 0 48 48"
   version="1.1"
   id="svg1"
   xml:space="preserve"
   xmlns="http://www.w3.org/2000/svg"
   xmlns:svg="http://www.w3.org/2000/svg"><defs
     id="defs1" /><path
     style="fill:#df7441;fill-opacity:1;stroke-width:1.06867"
     d="M 19.950808,46.217575 18.476109,45.419309 16.939964,44.46774 15.403819,43.516171 v -0.153549 -0.153549 l 1.763055,-0.66054 1.763056,-0.66054 1.413144,0.872242 1.413145,0.872243 2.169584,-1.190317 2.169585,-1.190318 2.949398,-1.529738 2.9494,-1.529738 3.010844,-1.53837 3.010844,-1.538371 0.02873,-4.305759 0.02873,-4.305759 0.15561,-1.4747 0.155608,-1.474699 1.564446,-1.474699 1.564446,-1.4747 -0.17522,8.110847 -0.17522,8.110846 -0.283201,0.286237 -0.283202,0.286236 -3.318073,1.707939 -3.318074,1.707939 -3.440964,1.793276 -3.440966,1.793277 -2.580723,1.312319 -2.580724,1.312319 -0.245783,-0.0053 -0.245783,-0.0053 z M 0.41104257,46.428844 v -0.159885 l 1.54362703,-2.877604 1.543627,-2.877604 2.5732418,-5.127207 2.5732413,-5.127207 4.8633003,-4.827014 4.863299,-4.827013 0.265529,-0.09153 0.26553,-0.09154 4.395911,4.390821 4.395911,4.390823 -0.06209,0.167613 -0.06209,0.167612 -4.392505,4.474346 -4.392506,4.474347 -2.132272,0.911349 -2.132271,0.911348 -2.814985,1.305184 -2.8149857,1.305182 -3.5662787,1.664901 -3.5662793,1.6649 -0.6734811,0.169033 -0.67348111,0.169034 z m 12.28915943,-9.966336 2.089158,-1.044455 0.08976,-0.08168 0.08977,-0.08168 -0.753253,-0.913826 -0.753253,-0.913826 0.486689,-0.683492 0.486689,-0.683491 1.519407,-1.353446 1.519408,-1.353445 -0.12622,-0.126219 -0.126219,-0.12622 -2.127977,1.712529 -2.127978,1.712529 -0.563109,0.01539 -0.56311,0.01539 -0.817228,1.669878 -0.817229,1.669878 -1.0582491,1.610985 -1.0582505,1.610983 1.2610206,-0.805668 1.26102,-0.805667 z M 2.2565103,25.459529 l 0.1384968,-8.78675 0.1298153,-1.726468 0.1298154,-1.726468 4.4697704,-2.293191 4.4697698,-2.2931894 4.669882,-2.46211 4.669881,-2.4621099 0.233493,-0.2158239 0.233495,-0.215825 h 0.43935 0.439348 l 2.645231,1.5654097 2.64523,1.5654097 0.553012,0.1716354 0.553012,0.1716364 V 7.0470641 7.3424433 L 27.19284,8.1578763 25.709567,8.9733092 23.791446,7.8865732 21.873325,6.7998372 18.700017,8.4976769 15.52671,10.195517 12.208636,11.923021 8.8905628,13.650528 7.39118,14.486344 5.8917972,15.322161 5.7321436,17.571373 5.57249,19.820585 v 5.215254 5.215254 l -1.2530823,1.567472 -1.2530823,1.567473 -0.2302645,0.43012 -0.2302646,0.430121 H 2.3619048 2.1180134 Z m 22.7202567,-2.155277 -4.28861,-4.30588 -0.06478,-0.189664 -0.06478,-0.189664 0.850253,-0.824098 0.850254,-0.824098 4.425547,4.44912 4.425547,4.449121 -0.770701,0.870521 -0.770702,0.870522 h -0.15171 -0.15171 z m 2.14469,-2.270698 -4.381163,-4.360775 0.219273,-0.352249 0.219274,-0.352249 0.41285,-0.260418 0.41285,-0.26042 4.302051,4.296782 4.302051,4.296782 v 0.27177 0.27177 l -0.449473,0.406768 -0.449475,0.406768 -0.103533,-0.0019 -0.103543,-0.0019 z m 1.616101,-1.728732 -4.23976,-4.316301 v -0.126984 -0.126983 l 2.107844,-2.047061 2.107846,-2.047062 1.218407,-0.617413 1.218409,-0.6174144 1.405073,-0.9052347 1.405074,-0.9052336 2.089158,-1.1338452 2.089156,-1.1338442 0.791005,-0.4719133 0.791003,-0.4719143 1.501552,1.4746996 1.501551,1.4746986 1.000133,1.1832041 1.000132,1.183204 -1.058953,1.5204114 -1.058952,1.520412 -1.914263,2.826507 -1.914263,2.826506 -2.689647,2.64217 -2.689647,2.642169 -0.210549,-0.02823 -0.210549,-0.02823 z M 44.63382,7.3951802 44.037563,5.8597521 42.268194,4.9987936 40.498823,4.1378352 l 0.04889,-0.3447711 0.04888,-0.3447711 1.222825,-0.8423513 1.222825,-0.8423511 0.739419,0.1478838 0.739419,0.1478839 0.91974,0.6086546 0.91974,0.6086543 0.399276,0.6093736 0.399277,0.6093735 0.187972,0.8334455 0.187972,0.8334465 -0.348729,0.8293834 -0.34873,0.8293835 -0.521177,0.5547675 -0.521176,0.5547675 h -0.282587 -0.282587 z"
     id="path19" /></svg>
