<?xml version="1.0" encoding="UTF-8" standalone="no"?>
<!-- Created with Inkscape (http://www.inkscape.org/) -->

<svg
   width="48"
   height="48"
   viewBox="0 0 48 48"
   version="1.1"
   id="svg1"
   xml:space="preserve"
   xmlns="http://www.w3.org/2000/svg"
   xmlns:svg="http://www.w3.org/2000/svg"><defs
     id="defs1" /><g
     id="g2"
     transform="matrix(0.05738427,0,0,0.05738427,91.153924,-199.60825)"><g
       id="layer1"
       style="display:inline"><path
         style="display:inline;fill:#f1c88e;fill-opacity:1;stroke:none;stroke-width:22;stroke-dasharray:none;stroke-opacity:1"
         d="m -1020.4892,3605.4756 c -14.8918,0 -64.9826,-8.1228 -66.3364,-14.8918 -1.3538,-6.7691 -13.5381,-47.3832 -13.5381,-47.3832 l -82.5821,-1.3538 -13.538,46.0293 -93.4125,32.4914 -41.968,-23.0147 -73.1054,55.506 18.9532,47.3831 -55.506,89.3512 -46.0293,14.8918 -9.4767,94.7663 39.2604,21.6609 17.5994,100.1816 -21.6608,37.9065 62.275,86.6435 36.5527,-12.1842 79.8745,56.8598 12.1842,52.7983 c 0,0 81.2283,32.4914 82.5821,27.0761 1.3538,-5.4152 27.0761,-40.6141 27.0761,-40.6141 l 166.51799,-28.4299 33.84512,32.4913 77.16687,-52.7984 -8.12282,-40.6141 9.47663,-18.9533 -327.62079,-254.5153 z"
         id="path3" /><path
         style="display:inline;fill:#e096cf;fill-opacity:1;stroke:none;stroke-width:22;stroke-dasharray:none;stroke-opacity:1"
         d="m -1165.3463,3924.9735 1.3538,82.5821 85.2897,-35.1989 -6.769,-82.5821 z"
         id="path9" /><path
         style="display:inline;fill:#e096cf;fill-opacity:1;stroke:none;stroke-width:22;stroke-dasharray:none;stroke-opacity:1"
         d="m -1081.4104,4052.2312 6.769,117.781 79.87449,-41.968 -4.06141,-111.0119 z"
         id="path10" /><path
         style="display:inline;fill:#e096cf;fill-opacity:1;stroke:none;stroke-width:22;stroke-dasharray:none;stroke-opacity:1"
         d="m -1249.2822,3808.5463 1.3538,81.2283 86.6435,-35.1989 -4.0614,-75.8131 z"
         id="path8" /><path
         style="display:inline;fill:#c26a7a;fill-opacity:1;stroke:none;stroke-width:22;stroke-dasharray:none;stroke-opacity:1"
         d="m -1146.393,4011.617 59.5674,36.5528 82.5821,-41.968 -75.8131,-32.4913 z"
         id="path7" /><path
         style="display:inline;fill:#e3b5be;fill-opacity:1;stroke:none;stroke-width:22;stroke-dasharray:none;stroke-opacity:1"
         d="m -1348.1099,3761.1632 96.1201,50.0907 81.2283,-39.2603 -108.3044,-43.3218 z"
         id="path6" /><path
         style="display:inline;fill:#e1aeb7;fill-opacity:1;stroke:none;stroke-width:22;stroke-dasharray:none;stroke-opacity:1"
         d="m -1233.0365,3891.1284 67.6902,33.8451 74.4593,-36.5527 -69.0441,-35.1989 z"
         id="path5" /><path
         style="display:inline;fill:#d99b44;fill-opacity:1;stroke:none;stroke-width:22;stroke-dasharray:none;stroke-opacity:1"
         d="m -1358.9404,3767.9322 1.3538,285.6528 265.3458,117.781 8.1228,-125.9038 -77.1669,-32.4914 -5.4152,-86.6435 -81.2283,-36.5527 -1.3538,-78.5207 -92.0587,-48.7369 z"
         id="path4" /><path
         style="display:inline;fill:#73659f;fill-opacity:1"
         d="m -1087.3922,4190.2533 c -6.4435,-3.3665 -19.8639,-9.7158 -29.8231,-14.1098 -9.9592,-4.3939 -25.7576,-11.3622 -35.1076,-15.485 -9.35,-4.1228 -22.85,-9.874 -30,-12.7804 -7.15,-2.9064 -20.305,-8.727 -29.2333,-12.9348 -15.6328,-7.3674 -27.3045,-12.5306 -83.7667,-37.0563 -34.4676,-14.9718 -41.6886,-18.1952 -56.5893,-25.2607 l -12.5893,-5.9696 -11.4107,5.6163 c -18.0819,8.8998 -19.7391,9.4826 -26.2062,9.2162 -4.1715,-0.1718 -7.7053,-4.2191 -7.7008,-8.8197 0.01,-6.5552 2.6382,-9.3228 13.3251,-14.0129 8.0836,-3.5476 19.482,-7.7084 24.4212,-8.9145 0.9912,-0.2421 1.2942,-29.1331 1.4635,-139.5867 0.1175,-76.6047 0.23,-142.4452 0.25,-146.3121 0.048,-9.3342 1.6931,-11.7503 10.8807,-15.9833 15.9418,-7.345 74.4629,-26.4859 80.9775,-26.4859 2.0393,0 16.3532,4.8328 34.1574,11.5326 36.0217,13.5551 55.985,20.3327 72.2198,24.5187 12.2566,3.1602 15.5361,4.6509 17.2412,7.8368 0.6117,1.1429 1.0889,15.2537 1.209,35.75 0.1092,18.624 0.3805,37.0819 0.603,41.0175 l 0.4046,7.1556 14.6716,5.5852 c 8.0694,3.0719 25.0217,9.3935 37.6717,14.0479 17.0223,6.2633 23.5847,9.139 25.25,11.065 2.2326,2.5821 2.25,2.8507 2.2545,34.7964 0.01,35.4 0.7954,54.6943 2.2406,54.6943 0.9713,0 32.3565,11.6487 57.7235,21.4242 7.9577,3.0667 14.95152,5.5758 15.54177,5.5758 0.59025,0 3.07937,2.0489 5.53138,4.5532 l 4.45821,4.5531 0.0166,9.6969 c 0.009,5.3332 0.12163,17.6539 0.25,27.3794 0.22938,17.3773 0.27226,17.6942 2.48341,18.3572 1.2375,0.3711 14.85,5.5146 30.25,11.4301 15.4,5.9155 30.36948,11.5836 33.2655,12.5959 2.89603,1.0122 7.95853,4.0194 11.25,6.6827 7.17754,5.8076 7.60384,8.1845 2.7345,15.2467 -3.63703,5.275 -4.90958,6.0533 -23.24081,14.2137 -16.22987,7.225 -32.83957,16.4603 -76.00916,42.2626 -51.6,30.841 -51.8376,30.9781 -55.5329,32.0379 -8.2246,2.3588 -13.0625,1.3869 -25.5364,-5.1302 z m -4.6722,-80.5584 -0.2585,-54.6792 -7,-2.9633 c -3.85,-1.6298 -14.0903,-6.0724 -22.7561,-9.8724 -8.6659,-3.8 -22.1293,-9.3522 -29.9186,-12.3383 -12.9576,-4.9674 -20.7952,-9.0852 -22.6191,-11.884 -0.3884,-0.596 -0.9312,-20.4336 -1.2062,-44.0836 l -0.5,-43 -5.9579,-0.3061 c -4.9612,-0.2549 -8.8088,-1.6171 -23,-8.1426 -9.3732,-4.3101 -21.0921,-9.4092 -26.0421,-11.3313 -13.6114,-5.2856 -23.8276,-10.1797 -25.5,-12.216 -1.6376,-1.9939 -1.6019,-0.9681 -1.8618,-53.504 l -0.1509,-30.5 -11.2437,-4.4127 c -18.6532,-7.3206 -43.4335,-18.3986 -61.498,-27.4926 -9.39,-4.7271 -17.3383,-8.5947 -17.6628,-8.5947 -0.3244,0 -0.4758,61.6676 -0.3364,137.0391 l 0.2536,137.0391 26.5,11.8275 c 14.575,6.5052 33.7,15.0868 42.5,19.0703 8.8,3.9836 25,11.2937 36,16.2449 11,4.9512 27.65,12.5018 37,16.7791 9.35,4.2773 26.225,11.925 37.5,16.995 11.275,5.0699 30.85,14.0592 43.5,19.9761 30.4555,14.2454 31.7932,14.8465 33.2585,14.9446 1,0.067 1.2054,-11.1481 1,-54.5949 z m 41.0941,37.5543 c 10.806,-6.1187 24.9116,-14.104 31.3456,-17.7452 l 11.6983,-6.6204 0.3017,-49.0048 c 0.166,-26.9526 0.2469,-49.1346 0.1799,-49.2933 -0.067,-0.1587 -4.7921,2.1778 -10.5,5.1922 -5.708,3.0143 -15.7033,7.7557 -22.2118,10.5364 -6.5085,2.7806 -14.6085,6.5815 -18,8.4464 -3.3915,1.865 -7.8538,3.9258 -9.9163,4.5797 l -3.75,1.189 v 51.9224 c 0,28.5574 0.2711,51.9225 0.6026,51.9225 0.3314,0 9.4439,-5.0062 20.25,-11.1249 z m 75.71684,-25.6911 c 4.98822,-2.8094 16.15852,-8.5719 24.82289,-12.8056 l 15.75341,-7.6978 -3.32289,-1.4052 c -1.82759,-0.7729 -7.59789,-2.9129 -12.82289,-4.7556 -5.225,-1.8427 -15.55695,-5.844 -22.9599,-8.8919 -7.40294,-3.0478 -13.6,-5.4014 -13.77124,-5.2301 -0.17123,0.1712 -0.60129,11.2773 -0.95568,24.6802 l -0.64435,24.369 2.41558,-1.5776 c 1.32858,-0.8677 6.49686,-3.8761 11.48507,-6.6854 z m -98.82474,-88.214 c 4.7216,-1.6666 15.1481,-6.0821 23.17,-9.8124 8.0219,-3.7303 18.0573,-8.3293 22.301,-10.22 4.2436,-1.8907 7.7301,-3.6626 7.7476,-3.9376 0.036,-0.5614 -33.3882,-13.77 -50.8479,-20.0943 -7.9628,-2.8843 -12.3477,-3.9674 -14.5889,-3.6038 -1.7623,0.286 -12.3892,5.0994 -23.6154,10.6964 -18.0144,8.9814 -23.3851,11.4483 -31.4111,14.4277 -1.5847,0.5883 -0.4425,1.317 5.5,3.5093 4.125,1.5217 12.174,5.1188 17.8866,7.9934 5.7127,2.8747 14.1474,6.7428 18.7438,8.5958 4.5964,1.853 9.1474,3.8294 10.1133,4.3919 2.8479,1.6585 5.9151,1.2605 15.001,-1.9464 z m -55.4508,-48.855 c 7.8133,-3.7792 18.0311,-8.1126 22.7061,-9.6297 14.8034,-4.8039 13.5441,-3.0612 14.582,-20.1794 1.0184,-16.7965 1.2261,-49.3041 0.315,-49.3052 -0.3317,-4e-4 -5.7317,2.4154 -12,5.3686 -6.2684,2.9531 -14.547,6.5324 -18.397,7.9539 -11.2658,4.1598 -32.6085,13.3733 -32.552,14.0525 0.029,0.3434 0.052,14.7745 0.052,32.0692 v 31.445 l 5.5439,-2.4518 c 3.0491,-1.3485 11.9366,-5.5439 19.75,-9.3231 z m -36.9108,-68.6304 c 1.2721,-0.8335 12.8437,-5.7476 25.7148,-10.9202 30.7446,-12.3555 36.8685,-14.9507 36.8868,-15.6318 0.01,-0.3121 -2.5722,-1.3717 -5.7347,-2.3547 -10.2939,-3.1996 -32.587,-12.631 -39.5819,-16.7457 -8.6424,-5.0838 -11.6654,-5.9479 -16.3167,-4.6636 -2.0278,0.5599 -14.9739,6.5301 -28.7692,13.2672 -13.7952,6.7371 -26.2072,12.7397 -27.5822,13.339 -1.4491,0.6317 -1.8472,1.1183 -0.9471,1.1575 0.8541,0.037 5.3541,1.9073 10,4.1558 4.6459,2.2485 14.9456,6.7588 22.8883,10.0229 7.9426,3.2641 15.8176,6.8168 17.5,7.895 3.6866,2.3626 3.1343,2.3182 5.9419,0.4786 z m -52.8831,-46.7077 c 3.85,-1.6304 14.425,-6.1386 23.5,-10.0183 9.075,-3.8798 17.625,-7.3566 19,-7.7263 l 2.5,-0.6722 0.6329,-20.9301 c 0.3482,-11.5115 0.9753,-25.7675 1.3936,-31.68 0.4184,-5.9125 0.5333,-10.75 0.2554,-10.75 -0.2779,0 -3.5628,1.3863 -7.2998,3.0807 -3.7369,1.6944 -12.086,5.0268 -18.5534,7.4053 -6.4675,2.3784 -15.4911,6.2796 -20.0526,8.6692 -4.5614,2.3896 -10.787,5.2465 -13.8348,6.3485 l -5.5413,2.0038 -0.2643,31.2399 -0.2642,31.2399 5.7642,-2.6231 c 3.1704,-1.4427 8.9143,-3.957 12.7643,-5.5873 z m -16.0051,-76.7749 c 4.1509,-1.6489 10.5751,-4.507 14.276,-6.3513 3.701,-1.8442 12.2683,-5.4934 19.0385,-8.1092 6.7702,-2.6157 12.1311,-4.9343 11.9131,-5.1523 -0.5178,-0.5178 -22.1212,-8.5059 -36.6197,-13.5405 -6.2685,-2.1767 -18.0881,-7.1079 -26.2659,-10.9582 -16.7965,-7.9082 -23.5256,-9.573 -31.3369,-7.7526 -12.2829,2.8625 -48.6211,17.0744 -47.2256,18.4699 1.3794,1.3794 23.6425,14.1684 32.7256,18.7991 14.6393,7.4635 27.2142,12.2795 39.2315,15.0253 13.6221,3.1124 15.4258,3.0804 24.2634,-0.4302 z m 172.5163,-12.6468 c 0.5009,0.5009 2.2832,2.139 3.1125,3.3543"
         id="path1" /></g><g
       id="layer3"><path
         d="m -874.41272,3986.3868 c -1.50477,-0.4531 -4.27392,-1.7743 -6.15367,-2.936 -3.55666,-2.1982 -131.73641,-132.2309 -170.04791,-172.5062 -12.0657,-12.6841 -39.5791,-40.8371 -61.1408,-62.5621 -21.5617,-21.725 -39.7482,-40.5686 -40.4143,-41.8747 -2.4403,-4.7844 -0.3476,-20.946 3.4061,-26.3051 0.6806,-0.9717 6.7048,-6.9538 13.3872,-13.2935 11.396,-10.8115 12.4015,-11.5267 16.2067,-11.5267 4.7145,0 9.6499,1.8682 14.2423,5.3911 1.7877,1.3714 23.5003,23.3239 48.2503,48.7835 24.75,25.4595 60.30661,61.823 79.01463,80.8077 18.70802,18.9848 52.45802,53.8423 75,77.4613 22.54198,23.6189 46.29633,48.4809 52.78745,55.2489 14.12931,14.7319 17.92706,21.4606 18.52403,32.8199 l 0.36853,7.0123 -5.20024,7.6975 c -2.86014,4.2336 -6.78271,8.9045 -8.71684,10.3797 -6.83048,5.2099 -21.33515,7.865 -29.51348,5.4024 z"
         style="fill:#e096cf;fill-opacity:1;stroke:#73659f;stroke-width:22;stroke-dasharray:none;stroke-opacity:1"
         id="path1-4" /><path
         style="fill:none;stroke:#73659f;stroke-width:22;stroke-dasharray:none;stroke-opacity:1"
         d="m -1071.879,3784.5406 47.5837,-47.5836"
         id="path2" /></g><g
       id="layer2"><path
         d="m -1227.5752,4272.2303 c -17.05,-5.7063 -36.9469,-12.7047 -44.2152,-15.552 -11.5028,-4.506 -13.7229,-5.7536 -17.1334,-9.6281 -5.5507,-6.3059 -6.245,-10.1325 -5.4859,-30.2364 l 0.6421,-17.0086 -5.3513,-2.7118 c -15.9726,-8.0939 -38.764,-24.6816 -54.3226,-39.5363 l -10.5869,-10.108 -16.611,5.7034 c -23.8423,8.1864 -24.2711,8.0772 -39.8009,-10.1334 -10.9011,-12.783 -30.4701,-38.9505 -34.6354,-46.3143 -3.3458,-5.9148 -8.0569,-12.859 -17.1552,-25.2866 -3.377,-4.6127 -4.2565,-6.7282 -4.6201,-11.112 -0.5906,-7.123 0.541,-9.339 12.8717,-25.2061 5.5499,-7.1415 10.4563,-13.6634 10.9033,-14.4931 0.5148,-0.9554 -0.8216,-6.2712 -3.6453,-14.5 -8.1458,-23.7385 -13.559,-47.8363 -15.1611,-67.4914 l -0.6928,-8.5 -13.5,-7.0398 c -21.5947,-11.2608 -24.6103,-15.393 -23.6894,-32.4602 0.7459,-13.8258 8.4702,-80.4601 9.8756,-85.1938 1.6054,-5.4073 6.4685,-10.7375 12.2429,-13.419 2.789,-1.2951 12.19,-4.0317 20.8912,-6.0814 l 15.8202,-3.7268 8.2408,-16.5395 c 9.4449,-18.9562 17.0013,-31.7834 30.2042,-51.2721 l 9.3032,-13.7326 -4.3505,-9.7674 c -2.3928,-5.3721 -6.4156,-14.2674 -8.9395,-19.7674 -5.3808,-11.7254 -5.9543,-17.1507 -2.3487,-22.2198 3.6157,-5.0834 49.665,-44.2902 70.2421,-59.8048 12.8523,-9.6903 17.3031,-11.1841 23.6086,-7.9234 3.6457,1.8853 28.3493,19.7509 32.0542,23.1815 l 2.6549,2.4584 16.3451,-6.5031 c 24.0457,-9.5668 51.1683,-17.6576 59.3451,-17.7029 1.65,-0.01 3.5557,-0.3695 4.2349,-0.8009 0.6791,-0.4314 3.5033,-9.0826 6.276,-19.2248 5.3593,-19.6044 7.8024,-24.7144 13.2348,-27.6823 2.9853,-1.6309 7.0569,-1.7779 49.2543,-1.7779 44.6243,0 46.1196,0.062 50,2.0778 5.7489,2.9863 8.7517,9.2129 12.9833,26.9222 4.2445,17.7635 4.8964,19.5 7.3206,19.5 1.0158,0 13.1344,3.2625 26.9304,7.25 28.1016,8.1223 31.8683,10.0603 32.9365,16.9457 0.8095,5.2184 -0.2074,8.2907 -4.0556,12.2533 -4.3202,4.4486 -7.6859,5.2596 -13.5097,3.2553 -2.533,-0.8718 -8.6555,-2.9699 -13.6055,-4.6625 -4.95,-1.6925 -17.1,-4.6955 -27,-6.6732 -27.5914,-5.512 -25.9738,-3.9255 -32.494,-31.8686 -3.7105,-15.9015 -4.6724,-18.3826 -7.3826,-19.0423 -1.1679,-0.2842 -16.5044,-0.391 -34.0812,-0.2372 l -31.9577,0.2795 -2.2832,7.5 c -1.2558,4.125 -3.7213,13.0778 -5.479,19.8952 -2.0695,8.0268 -4.0215,13.3764 -5.5386,15.1794 -2.8377,3.3725 -8.55,5.3051 -21.7837,7.37 -9.9461,1.552 -16.2921,3.642 -46.5,15.3145 -22.6932,8.7688 -34.8935,12.5051 -38.7935,11.8802 -3.5782,-0.5733 -13.328,-7.5525 -25.1878,-18.03 -4.1147,-3.6351 -8.0809,-6.6093 -8.8139,-6.6093 -1.3409,0 -21.8277,13.3787 -30.2048,19.7249 -6.0383,4.5745 -33,28.2887 -33,29.0252 0,0.3211 4.0175,8.3191 8.9278,17.7733 4.9102,9.4542 9.2303,18.8026 9.6002,20.7742 0.8392,4.4734 -2.4609,12.1444 -8.803,20.4624 -10.4801,13.7451 -28.592,43.964 -38.3526,63.9895 -4.088,8.3873 -8.7688,16.7713 -10.4017,18.6311 -3.1639,3.6034 -8.7863,5.6202 -15.6635,5.6184 -3.6393,-10e-4 -24.7533,5.3443 -26.8691,6.8022 -1.4112,0.9725 -4.0293,20.4901 -6.3983,47.6988 -1.1014,12.65 -2.2133,25.1249 -2.4708,27.722 l -0.4681,4.722 9.6995,5.3967 c 5.3348,2.9682 12.6246,6.9917 16.1996,8.9411 3.575,1.9493 7.5072,4.6193 8.7383,5.9333 2.8237,3.0137 4.4047,11.1234 3.6242,18.5904 -1.1544,11.0451 3.956,32.8567 14.6891,62.6945 10.3194,28.6876 10.3162,28.9587 -0.4783,40.3722 -10.3049,10.8957 -17.7631,20.1908 -17.2576,21.5081 0.2392,0.6233 3.3035,4.9585 6.8096,9.6339 3.5061,4.6753 11.7747,15.8769 18.3747,24.8923 17.7319,24.2215 27.4904,36.3199 28.8211,35.732 0.6484,-0.2865 4.5539,-1.8684 8.6789,-3.5153 4.125,-1.6469 9.975,-4.3652 13,-6.0407 9.7955,-5.4255 12.1056,-4.6204 26.0192,9.0683 19.511,19.1956 36.8482,33.0576 53.5564,42.8213 3.791,2.2153 7.7998,4.0323 8.9085,4.0376 3.1398,0.015 11.7471,4.4327 14.5159,7.4498 l 2.5,2.7243 -0.3314,20.3992 c -0.1823,11.2196 -0.038,21.7363 0.3212,23.3706 0.8436,3.841 5.2035,6.5225 14.648,9.0093 4.0492,1.0661 13.2122,3.5407 20.3622,5.499 26.5657,7.276 37.6223,9.6814 39.0508,8.4959 2.1066,-1.7483 14.6791,-18.697 19.7307,-26.5985 2.5109,-3.9273 6.2092,-8.3945 8.2185,-9.9271 l 3.6532,-2.7865 11.1734,1.9271 c 8.8179,1.5209 15.9166,1.9228 33.6734,1.9065 25.0335,-0.023 28.317,-0.45 62.4976,-8.1288 27.9339,-6.2754 34.3716,-8.171 39.3345,-11.5821 9.3408,-6.42 20.84697,-8.481 26.86451,-4.8119 1.75815,1.0721 8.45434,7.1342 14.88042,13.4715 l 11.6838,11.5224 3.11958,-2.1933 c 1.71577,-1.2063 6.13338,-4.4577 9.81692,-7.2252 12.47977,-9.3764 27.26198,-19.1889 37.55697,-24.9305 11.90036,-6.6369 11.34777,-3.6592 4.61587,-24.8727 -2.4036,-7.5742 -4.37018,-14.8574 -4.37018,-16.1849 0,-4.4142 2.02435,-7.8371 8.9417,-15.1193 10.31571,-10.8598 32.42699,-44.6966 44.61557,-68.275 8.90982,-17.2358 15.15575,-23.2214 22.67606,-21.7309 5.77561,1.1446 10.76667,6.8623 10.76667,12.334 0,4.3596 -3.70186,13.0577 -11.80907,27.7474 -13.03975,23.627 -34.15409,55.44 -42.10502,63.4396 l -4.41408,4.4412 4.16408,16.1795 c 2.29025,8.8988 4.16409,18.056 4.16409,20.3495 0,9.0446 -5.82954,15.4105 -23.26308,25.4033 -5.63031,3.2273 -21.26192,13.2036 -34.73692,22.1695 -13.475,8.966 -26.4125,16.8715 -28.75,17.5678 -7.78732,2.3199 -10.93008,0.5672 -26.43206,-14.7412 -9.30872,-9.1925 -14.10333,-13.2655 -15.00003,-12.7426 -0.7248,0.4228 -3.1952,2.0943 -5.4898,3.7144 -7.0418,4.9723 -40.3559,14.1363 -72.3281,19.896 -10.2791,1.8518 -16.0534,2.248 -32.5,2.2301 -11,-0.012 -24.4934,-0.6014 -29.9854,-1.3097 -9.3908,-1.2112 -10.0635,-1.178 -11.2964,0.5573 -0.721,1.0149 -4.887,7.2453 -9.2577,13.8453 -13.8008,20.8398 -19.0259,25.4356 -28.9605,25.4729 -3.086,0.012 -14.2408,-3.2431 -35.5,-10.3582 z"
         style="display:inline;fill:#e6836f;fill-opacity:1"
         id="path1-7" /></g></g></svg>
