<?xml version="1.0" encoding="UTF-8" standalone="no"?>
<!-- Created with Inkscape (http://www.inkscape.org/) -->

<svg
   width="48"
   height="48"
   viewBox="0 0 48 48"
   version="1.1"
   id="svg1"
   xml:space="preserve"
   xmlns:xlink="http://www.w3.org/1999/xlink"
   xmlns="http://www.w3.org/2000/svg"
   xmlns:svg="http://www.w3.org/2000/svg"><defs
     id="defs1"><linearGradient
       id="linearGradient478"><stop
         style="stop-color:#eccc32;stop-opacity:1;"
         offset="0"
         id="stop478" /><stop
         style="stop-color:#9e3b0d;stop-opacity:0.99229288;"
         offset="1"
         id="stop479" /></linearGradient><style
       id="style30113">.cls-1{isolation:isolate;}.cls-2{fill:url(#radial-gradient);}.cls-3{opacity:0.4;fill:url(#linear-gradient);}.cls-3,.cls-65{mix-blend-mode:multiply;}.cls-4{fill:url(#linear-gradient-2);}.cls-5{fill:url(#linear-gradient-3);}.cls-6{fill:url(#linear-gradient-4);}.cls-7{fill:url(#linear-gradient-5);}.cls-8{fill:url(#linear-gradient-6);}.cls-9{fill:url(#linear-gradient-7);}.cls-10{fill:#e9b96e;}.cls-11{fill:url(#linear-gradient-8);}.cls-12{fill:url(#linear-gradient-9);}.cls-13{fill:url(#linear-gradient-10);}.cls-14{fill:url(#linear-gradient-11);}.cls-15{opacity:0.55;fill:url(#linear-gradient-12);}.cls-16{fill:url(#linear-gradient-13);}.cls-17,.cls-20,.cls-22,.cls-24,.cls-34,.cls-35,.cls-37,.cls-38,.cls-39,.cls-41,.cls-43,.cls-55,.cls-56,.cls-67{fill:none;}.cls-17{stroke:#3465a4;}.cls-17,.cls-22,.cls-34,.cls-35,.cls-37,.cls-38,.cls-39,.cls-41,.cls-43,.cls-55,.cls-56{stroke-linecap:round;stroke-linejoin:round;}.cls-17,.cls-34,.cls-35,.cls-37,.cls-39,.cls-41,.cls-43,.cls-55,.cls-56{stroke-width:0.7px;}.cls-18{fill:#c28c3f;}.cls-19{fill:url(#linear-gradient-14);}.cls-20{stroke:#b16a10;}.cls-20,.cls-24,.cls-67{stroke-miterlimit:10;}.cls-20,.cls-22,.cls-24,.cls-38,.cls-67{stroke-width:0.35px;}.cls-21{fill:url(#linear-gradient-15);}.cls-22,.cls-24{stroke:#408b09;}.cls-23{fill:url(#linear-gradient-16);}.cls-25{fill:url(#linear-gradient-17);}.cls-26{fill:url(#linear-gradient-18);}.cls-27{fill:url(#linear-gradient-19);}.cls-28{fill:url(#linear-gradient-20);}.cls-29{fill:#408b09;}.cls-30{fill:url(#linear-gradient-21);}.cls-31{fill:url(#linear-gradient-22);}.cls-32{fill:url(#linear-gradient-23);}.cls-33{fill:url(#linear-gradient-24);}.cls-34{stroke:url(#linear-gradient-25);}.cls-35{stroke:url(#linear-gradient-26);}.cls-36{fill:url(#linear-gradient-27);}.cls-37{stroke:url(#linear-gradient-28);}.cls-38{stroke:url(#linear-gradient-29);}.cls-39{stroke:url(#linear-gradient-30);}.cls-40{fill:url(#linear-gradient-31);}.cls-41{stroke:url(#linear-gradient-32);}.cls-42{fill:url(#linear-gradient-33);}.cls-43{stroke:url(#linear-gradient-34);}.cls-44{fill:url(#linear-gradient-35);}.cls-45{fill:url(#linear-gradient-36);}.cls-46{fill:url(#linear-gradient-37);}.cls-47{fill:url(#linear-gradient-38);}.cls-48{fill:url(#linear-gradient-39);}.cls-49{fill:url(#linear-gradient-40);}.cls-50{fill:url(#linear-gradient-41);}.cls-51{fill:url(#linear-gradient-42);}.cls-52{fill:url(#linear-gradient-43);}.cls-53{fill:url(#linear-gradient-44);}.cls-54{fill:url(#linear-gradient-45);}.cls-55{stroke:url(#linear-gradient-46);}.cls-56{stroke:url(#linear-gradient-47);}.cls-57{fill:url(#linear-gradient-48);}.cls-58{fill:url(#linear-gradient-49);}.cls-59{fill:url(#linear-gradient-50);}.cls-60{fill:url(#linear-gradient-51);}.cls-61{fill:#eeeeec;}.cls-62{fill:#3465a4;}.cls-63{fill:#fce94f;}.cls-64{fill:#ef2929;}.cls-65{fill:url(#linear-gradient-52);}.cls-66{fill:url(#linear-gradient-53);}.cls-67{stroke:#204a87;}</style><style
       id="style32014">.cls-1{fill:url(#radial-gradient);}.cls-2{fill:url(#radial-gradient-2);}.cls-3{fill:url(#linear-gradient);}.cls-4{fill:#f57900;}.cls-5{fill:url(#radial-gradient-3);}.cls-6{fill:url(#New_Gradient_Swatch_11);}.cls-7{fill:url(#linear-gradient-2);}.cls-10,.cls-19,.cls-23,.cls-24,.cls-8,.cls-9{fill:none;stroke-linejoin:round;}.cls-8{stroke:#343434;}.cls-10,.cls-24,.cls-8,.cls-9{stroke-linecap:round;}.cls-9{stroke:#ce5c00;}.cls-10{stroke:#333;}.cls-11{fill:url(#radial-gradient-4);}.cls-12{fill:url(#radial-gradient-5);}.cls-13{fill:url(#radial-gradient-6);}.cls-14{fill:url(#radial-gradient-7);}.cls-15{fill:url(#radial-gradient-8);}.cls-16{fill:url(#radial-gradient-9);}.cls-17{fill:url(#radial-gradient-10);}.cls-18{fill:url(#radial-gradient-11);}.cls-19,.cls-23{stroke-width:0.97px;}.cls-19{stroke:url(#linear-gradient-3);}.cls-20{fill:#ce5c00;}.cls-21{fill:url(#radial-gradient-12);}.cls-22{fill:url(#linear-gradient-4);}.cls-23{stroke:url(#linear-gradient-5);}.cls-24{stroke:#757772;stroke-width:0.99px;}</style><linearGradient
       id="linearGradient31615"><stop
         style="stop-color:#eeeeec;stop-opacity:1;"
         offset="0"
         id="stop31617" /><stop
         style="stop-color:#d2d2cc;stop-opacity:1;"
         offset="1"
         id="stop31619" /></linearGradient><style
       id="style2267">.cls-1{isolation:isolate;}.cls-2{fill:url(#radial-gradient);}.cls-3{fill:url(#linear-gradient);}.cls-10,.cls-25,.cls-4,.cls-5,.cls-9{fill:none;}.cls-4{stroke:#729fcf;}.cls-10,.cls-25,.cls-4,.cls-9{stroke-linecap:round;stroke-linejoin:round;}.cls-4,.cls-5,.cls-9{stroke-width:0.7px;}.cls-5{stroke-miterlimit:10;stroke:url(#linear-gradient-2);}.cls-6{fill:url(#New_Gradient_Swatch_4);}.cls-7{fill:url(#linear-gradient-3);}.cls-8{fill:url(#linear-gradient-4);}.cls-10,.cls-9{stroke:#204a87;}.cls-10,.cls-25{stroke-width:1.4px;}.cls-11{fill:#00255d;}.cls-12{fill:#204a87;}.cls-13,.cls-19,.cls-20,.cls-22,.cls-33{mix-blend-mode:multiply;}.cls-13{fill:url(#linear-gradient-5);}.cls-14{fill:url(#linear-gradient-7);}.cls-15{fill:#232729;}.cls-16{fill:#3465a4;}.cls-17{fill:#c8cdc3;}.cls-18{fill:url(#linear-gradient-8);}.cls-19{fill:url(#linear-gradient-9);}.cls-20{fill:url(#linear-gradient-10);}.cls-21,.cls-23,.cls-34{opacity:0.9;}.cls-21{fill:url(#linear-gradient-11);}.cls-22{fill:url(#linear-gradient-12);}.cls-23{fill:url(#linear-gradient-13);}.cls-24{fill:url(#New_Gradient_Swatch_2);}.cls-25{stroke:#555753;}.cls-26{fill:url(#linear-gradient-14);}.cls-27{fill:url(#linear-gradient-15);}.cls-28{fill:url(#linear-gradient-16);}.cls-29{fill:url(#linear-gradient-17);}.cls-30{fill:url(#linear-gradient-18);}.cls-31{fill:url(#linear-gradient-19);}.cls-32{fill:url(#linear-gradient-20);}.cls-33{fill:url(#linear-gradient-21);}.cls-34{fill:url(#linear-gradient-22);}</style><style
       id="style135397">.cls-1{isolation:isolate;}.cls-2{fill:url(#radial-gradient);}.cls-20,.cls-21,.cls-3,.cls-33{mix-blend-mode:multiply;}.cls-4{fill:url(#linear-gradient);}.cls-5{opacity:0.85;}.cls-6{fill:url(#linear-gradient-2);}.cls-7{fill:url(#linear-gradient-3);}.cls-8{fill:url(#linear-gradient-4);}.cls-9{fill:url(#linear-gradient-5);}.cls-10{fill:url(#linear-gradient-6);}.cls-11{fill:url(#linear-gradient-7);}.cls-12{fill:url(#linear-gradient-8);}.cls-13{fill:url(#linear-gradient-9);}.cls-14,.cls-17,.cls-29,.cls-34,.cls-43,.cls-51,.cls-52,.cls-53,.cls-56,.cls-58{fill:none;}.cls-14{stroke:#3465a4;}.cls-14,.cls-17,.cls-44,.cls-45,.cls-52,.cls-53{stroke-linecap:round;stroke-linejoin:round;}.cls-14,.cls-17,.cls-22,.cls-29,.cls-34{stroke-width:0.7px;}.cls-15{fill:url(#linear-gradient-10);}.cls-16{fill:url(#linear-gradient-11);}.cls-17,.cls-22,.cls-34,.cls-52{stroke:#888a85;}.cls-18{fill:url(#linear-gradient-12);}.cls-19{fill:url(#linear-gradient-13);}.cls-20,.cls-21,.cls-33{opacity:0.4;}.cls-20{fill:url(#linear-gradient-14);}.cls-21{fill:url(#linear-gradient-15);}.cls-22{fill:#888a85;}.cls-22,.cls-29,.cls-34{stroke-linejoin:bevel;}.cls-23{fill:#babdb6;}.cls-24{fill:#eeeeec;}.cls-25{fill:url(#linear-gradient-16);}.cls-26{fill:url(#linear-gradient-17);}.cls-27{fill:url(#linear-gradient-18);}.cls-28{fill:url(#linear-gradient-19);}.cls-29{stroke:#8f5902;}.cls-30{fill:#c17d11;}.cls-31{fill:#e9b96e;}.cls-32{fill:url(#linear-gradient-20);}.cls-33{fill:url(#linear-gradient-21);}.cls-35{fill:url(#linear-gradient-22);}.cls-36{fill:url(#linear-gradient-23);}.cls-37{fill:url(#linear-gradient-24);}.cls-38{fill:url(#linear-gradient-25);}.cls-39{fill:url(#linear-gradient-26);}.cls-40{fill:url(#linear-gradient-27);}.cls-41{fill:url(#linear-gradient-28);}.cls-42{fill:url(#linear-gradient-29);}.cls-43,.cls-51,.cls-56,.cls-58{stroke-miterlimit:10;}.cls-43,.cls-44,.cls-45,.cls-51,.cls-53,.cls-56,.cls-58{stroke-width:0.35px;}.cls-43{stroke:url(#linear-gradient-30);}.cls-44,.cls-45,.cls-58{stroke:#edd400;}.cls-44{fill:url(#linear-gradient-31);}.cls-45{fill:url(#linear-gradient-32);}.cls-46{fill:url(#linear-gradient-33);}.cls-47{fill:url(#linear-gradient-34);}.cls-48{fill:#ad7fa8;}.cls-49{fill:#73d216;}.cls-50{fill:#fcaf3e;}.cls-51{stroke:#e9b96e;}.cls-52{stroke-width:0.95px;}.cls-53{stroke:#eeeeec;}.cls-54{fill:url(#linear-gradient-35);}.cls-55{fill:url(#linear-gradient-36);}.cls-56{stroke:#c4a000;}.cls-57{fill:#fff;}.cls-59{fill:url(#linear-gradient-37);}.cls-60{fill:url(#linear-gradient-38);}.cls-61{fill:url(#linear-gradient-39);}.cls-62{fill:url(#linear-gradient-40);}.cls-63{fill:url(#linear-gradient-41);}.cls-64{fill:url(#linear-gradient-42);}</style><style
       id="style32576">.cls-1{isolation:isolate;}.cls-2{fill:url(#radial-gradient);}.cls-10,.cls-14,.cls-3{fill:none;stroke-width:0.7px;}.cls-14,.cls-3{stroke-linecap:round;stroke-linejoin:round;}.cls-3{stroke:url(#linear-gradient);}.cls-4{fill:url(#linear-gradient-2);}.cls-5{fill:url(#linear-gradient-3);}.cls-6{fill:url(#linear-gradient-4);}.cls-7{mix-blend-mode:multiply;}.cls-8{fill:#888a85;}.cls-9{fill:url(#linear-gradient-5);}.cls-10{stroke:#c17d11;stroke-miterlimit:10;}.cls-11{fill:#c00;}.cls-12{fill:url(#linear-gradient-7);}.cls-13{fill:url(#radial-gradient-2);}.cls-14{stroke:url(#linear-gradient-8);}.cls-15{fill:url(#linear-gradient-9);}.cls-16{fill:url(#linear-gradient-10);}.cls-17{fill:url(#linear-gradient-11);}.cls-18{fill:url(#linear-gradient-12);}.cls-19{fill:url(#linear-gradient-13);}.cls-20{fill:url(#linear-gradient-14);}.cls-21{fill:url(#linear-gradient-15);}.cls-22{fill:url(#linear-gradient-16);}.cls-23{fill:#fff;}.cls-24{fill:url(#linear-gradient-17);}.cls-25{fill:url(#linear-gradient-18);}.cls-26{fill:url(#linear-gradient-19);}.cls-27{fill:url(#linear-gradient-20);}.cls-28{fill:url(#linear-gradient-21);}</style><style
       id="style1">.cls-1{fill:url(#radial-gradient);}.cls-2{fill:#ad7fa8;}.cls-3{fill:url(#linear-gradient);}.cls-4,.cls-5{fill:url(#linear-gradient-2);}.cls-5{opacity:0.2;}.cls-6{opacity:0.7;fill:url(#linear-gradient-4);}.cls-10,.cls-14,.cls-16,.cls-7,.cls-8{fill:none;}.cls-7,.cls-8{stroke:#cc9ac9;}.cls-10,.cls-7,.cls-8{stroke-miterlimit:10;}.cls-14,.cls-7{stroke-width:0.7px;}.cls-8{stroke-width:0.5px;}.cls-9{fill:#8ae234;}.cls-10{stroke:#4e9a06;stroke-width:1.4px;}.cls-11{fill:#4e9a06;}.cls-12{fill:#e7bc7b;}.cls-13{fill:#edd400;}.cls-14{stroke:#8f5902;}.cls-14,.cls-16{stroke-linecap:round;stroke-linejoin:round;}.cls-15{fill:#f57900;}.cls-16{stroke:#eeeeec;}.cls-17{fill:#8f5902;}</style><style
       id="style6884">.cls-1{fill:url(#radial-gradient);}.cls-2{fill:#c17d11;}.cls-3{fill:url(#linear-gradient);}.cls-4{fill:url(#linear-gradient-2);}.cls-5{fill:#8f5902;}.cls-6{fill:#e9b96e;}.cls-7{fill:url(#linear-gradient-3);}.cls-8{fill:url(#linear-gradient-4);}.cls-16,.cls-29,.cls-9{fill:none;}.cls-9{stroke:#8f5902;stroke-miterlimit:10;}.cls-10{fill:#ef2929;}.cls-11{fill:url(#linear-gradient-6);}.cls-12{fill:url(#linear-gradient-7);}.cls-13{fill:url(#linear-gradient-8);}.cls-14{fill:url(#linear-gradient-9);}.cls-15{fill:url(#linear-gradient-10);}.cls-16{stroke:#a40000;}.cls-16,.cls-29{stroke-linecap:round;stroke-linejoin:round;stroke-width:0.7px;}.cls-17{fill:url(#linear-gradient-11);}.cls-18{fill:url(#linear-gradient-12);}.cls-19{fill:url(#linear-gradient-13);}.cls-20{fill:url(#linear-gradient-14);}.cls-21{fill:url(#linear-gradient-15);}.cls-22{fill:url(#linear-gradient-16);}.cls-23{fill:url(#linear-gradient-17);}.cls-24{fill:url(#linear-gradient-18);}.cls-25{fill:url(#linear-gradient-19);}.cls-26{fill:url(#linear-gradient-20);}.cls-27{fill:url(#linear-gradient-21);}.cls-28{fill:url(#linear-gradient-22);}.cls-29{stroke:#555753;}.cls-30{fill:url(#linear-gradient-23);}.cls-31{fill:url(#linear-gradient-24);}.cls-32{fill:url(#linear-gradient-25);}</style><style
       id="style1-1">.cls-1{fill:#8ae234;}.cls-11,.cls-12,.cls-18,.cls-19,.cls-2,.cls-22,.cls-26,.cls-31,.cls-32,.cls-4,.cls-5,.cls-6{fill:none;}.cls-2,.cls-5{stroke:#4e9a06;}.cls-2{stroke-miterlimit:10;}.cls-11,.cls-19,.cls-2{stroke-width:0.7px;}.cls-3{fill:url(#radial-gradient);}.cls-4{stroke:#fff;stroke-width:2.5px;opacity:0.3;}.cls-11,.cls-12,.cls-18,.cls-19,.cls-22,.cls-26,.cls-31,.cls-32,.cls-4,.cls-5,.cls-6{stroke-linecap:round;stroke-linejoin:round;}.cls-5{stroke-width:3px;}.cls-19,.cls-6{stroke:#8ae234;}.cls-6{stroke-width:1.5px;}.cls-7{fill:url(#linear-gradient);}.cls-8{fill:url(#linear-gradient-2);}.cls-9{fill:url(#linear-gradient-3);}.cls-10{fill:#00255d;}.cls-11,.cls-22{stroke:#3465a4;}.cls-12{stroke:url(#linear-gradient-4);}.cls-13{fill:url(#linear-gradient-5);}.cls-14{fill:#204a87;}.cls-15{fill:url(#linear-gradient-6);}.cls-16{fill:url(#linear-gradient-7);}.cls-17{fill:url(#linear-gradient-8);}.cls-18{stroke:url(#linear-gradient-9);}.cls-20{fill:url(#linear-gradient-10);}.cls-21{fill:url(#linear-gradient-11);}.cls-22{stroke-width:0.35px;}.cls-23{fill:url(#linear-gradient-12);}.cls-24{fill:url(#linear-gradient-13);}.cls-25{fill:url(#linear-gradient-14);}.cls-26{stroke:url(#linear-gradient-15);}.cls-27{fill:url(#linear-gradient-16);}.cls-28{fill:url(#linear-gradient-17);}.cls-29{fill:url(#linear-gradient-18);}.cls-30{fill:#3465a4;}.cls-31{stroke:url(#linear-gradient-19);}.cls-32{stroke:url(#linear-gradient-20);}</style><style
       id="style146622">.cls-1{isolation:isolate;}.cls-2{fill:url(#radial-gradient);}.cls-15,.cls-16,.cls-18,.cls-3,.cls-9{mix-blend-mode:multiply;}.cls-10,.cls-11,.cls-21,.cls-4,.cls-5{fill:none;}.cls-4{stroke:#729fcf;}.cls-21,.cls-4,.cls-5{stroke-miterlimit:10;}.cls-10,.cls-11,.cls-4,.cls-5{stroke-width:0.7px;}.cls-21,.cls-5{stroke:#3465a4;}.cls-6{fill:#3465a4;}.cls-7{fill:url(#linear-gradient);}.cls-8{fill:url(#linear-gradient-2);}.cls-9{fill:url(#linear-gradient-3);}.cls-10,.cls-11{stroke-linecap:round;stroke-linejoin:round;}.cls-10{stroke:url(#linear-gradient-4);}.cls-11{stroke:url(#linear-gradient-5);}.cls-12{fill:#231f20;}.cls-13{fill:#204a87;}.cls-14{fill:url(#linear-gradient-6);}.cls-15{fill:url(#linear-gradient-7);}.cls-16{fill:url(#linear-gradient-8);}.cls-17{fill:url(#linear-gradient-9);}.cls-18{fill:url(#linear-gradient-10);}.cls-19{fill:#729fcf;}.cls-20{fill:url(#linear-gradient-11);}.cls-21{stroke-width:0.35px;}.cls-22{fill:url(#linear-gradient-13);}.cls-23{fill:url(#linear-gradient-14);}</style><style
       id="style148850">.cls-1{isolation:isolate;}.cls-2{fill:url(#radial-gradient);}.cls-3{fill:url(#radial-gradient-2);}.cls-4{mix-blend-mode:multiply;}.cls-19,.cls-5,.cls-8{fill:none;stroke:#3465a4;}.cls-19,.cls-5{stroke-linecap:round;stroke-linejoin:round;}.cls-5{stroke-width:0.7px;}.cls-6{fill:url(#linear-gradient);}.cls-7{fill:url(#linear-gradient-2);}.cls-8{stroke-miterlimit:10;}.cls-19,.cls-8{stroke-width:0.35px;}.cls-9{fill:url(#linear-gradient-3);}.cls-10{fill:url(#linear-gradient-4);}.cls-11{fill:url(#linear-gradient-5);}.cls-12{fill:url(#linear-gradient-6);}.cls-13{fill:url(#linear-gradient-7);}.cls-14{fill:url(#linear-gradient-8);}.cls-15{fill:url(#linear-gradient-9);}.cls-16{fill:url(#linear-gradient-10);}.cls-17{fill:url(#linear-gradient-11);}.cls-18{fill:url(#linear-gradient-12);}.cls-20{fill:url(#linear-gradient-13);}.cls-21{fill:url(#linear-gradient-14);}.cls-22{fill:url(#linear-gradient-15);}.cls-23,.cls-27{fill:#3465a4;}.cls-24{fill:url(#linear-gradient-16);}.cls-25{fill:url(#linear-gradient-17);}.cls-26{fill:#204a87;}.cls-27{opacity:0.41;}.cls-28{fill:url(#linear-gradient-18);}.cls-29{fill:url(#linear-gradient-19);}.cls-30{fill:url(#linear-gradient-20);}.cls-31{fill:url(#linear-gradient-21);}.cls-32{fill:url(#linear-gradient-22);}.cls-33{fill:url(#linear-gradient-23);}.cls-34{fill:url(#linear-gradient-24);}.cls-35{fill:url(#linear-gradient-25);}.cls-36{fill:url(#linear-gradient-26);}.cls-37{fill:url(#linear-gradient-27);}.cls-38{fill:url(#linear-gradient-28);}.cls-39{fill:url(#linear-gradient-29);}.cls-40{fill:url(#linear-gradient-30);}.cls-41{fill:url(#linear-gradient-31);}.cls-42{fill:url(#linear-gradient-32);}.cls-43{fill:url(#linear-gradient-33);}.cls-44{fill:url(#linear-gradient-34);}.cls-45{fill:url(#linear-gradient-35);}.cls-46{fill:url(#linear-gradient-36);}</style><style
       id="style1028">.cls-1,.cls-11,.cls-9{fill:none;}.cls-2{fill:url(#radial-gradient);}.cls-3{fill:#c4a000;}.cls-4{fill:url(#radial-gradient-2);}.cls-5{fill:url(#radial-gradient-3);}.cls-6{fill:url(#radial-gradient-4);}.cls-7{fill:#900004;}.cls-8{fill:url(#linear-gradient);}.cls-9{stroke:#757772;}.cls-11,.cls-9{stroke-linecap:round;stroke-linejoin:round;stroke-width:0.7px;}.cls-10{fill:url(#linear-gradient-2);}.cls-11{stroke:#900004;}.cls-12{clip-path:url(#clip-path);}.cls-13{fill:url(#radial-gradient-5);}.cls-14{fill:url(#linear-gradient-3);}.cls-15{fill:url(#linear-gradient-4);}.cls-16{fill:url(#linear-gradient-5);}.cls-17{fill:url(#linear-gradient-6);}.cls-18{fill:url(#radial-gradient-6);}.cls-19{fill:url(#radial-gradient-7);}.cls-20{fill:url(#linear-gradient-7);}.cls-21{fill:url(#linear-gradient-8);}.cls-22{fill:url(#linear-gradient-9);}.cls-23{fill:url(#linear-gradient-10);}.cls-24,.cls-29{opacity:0.72;}.cls-24{fill:url(#linear-gradient-13);}.cls-25{fill:url(#linear-gradient-14);}.cls-26{fill:url(#linear-gradient-15);}.cls-27{fill:url(#linear-gradient-16);}.cls-28{fill:url(#linear-gradient-17);}.cls-29{fill:url(#linear-gradient-21);}</style><style
       id="style1-0">.cls-1{fill:url(#radial-gradient);}.cls-10,.cls-12,.cls-15,.cls-16,.cls-2,.cls-21,.cls-22,.cls-9{fill:none;}.cls-2{stroke:#f57f7f;stroke-width:0.7px;stroke-dasharray:2.5 1.5;}.cls-12,.cls-2,.cls-22{stroke-miterlimit:10;}.cls-3{fill:#f57f7f;}.cls-4{fill:url(#linear-gradient);}.cls-5{fill:url(#linear-gradient-2);}.cls-6{fill:url(#linear-gradient-3);}.cls-7{fill:url(#linear-gradient-4);}.cls-8{fill:url(#linear-gradient-5);}.cls-12,.cls-9{stroke:#729fcf;}.cls-10,.cls-15,.cls-16,.cls-21,.cls-9{stroke-linecap:round;stroke-linejoin:round;}.cls-10,.cls-12,.cls-21,.cls-22,.cls-9{stroke-width:0.35px;}.cls-10{stroke:#aec8e4;}.cls-11{fill:url(#linear-gradient-6);}.cls-13{fill:url(#linear-gradient-7);}.cls-14{fill:#d0f3ae;}.cls-15{stroke:#fff;stroke-width:3.5px;opacity:0.5;}.cls-16{stroke:#8ae234;stroke-width:1.5px;}.cls-17{fill:url(#radial-gradient-2);}.cls-18{fill:#fdeaea;}.cls-19{fill:url(#radial-gradient-3);}.cls-20{fill:#fabfbf;}.cls-21{stroke:#ef2929;}.cls-22{stroke:#a40000;}.cls-23{fill:#a40000;}.cls-24{fill:#c00;}</style><style
       id="style136602">.cls-1,.cls-13,.cls-19,.cls-25,.cls-36,.cls-40,.cls-55,.cls-58,.cls-61,.cls-77{fill:none;}.cls-2{isolation:isolate;}.cls-3{fill:url(#radial-gradient);}.cls-38,.cls-4,.cls-81,.cls-82,.cls-84{mix-blend-mode:multiply;}.cls-26,.cls-28,.cls-5,.cls-74{stroke:#4e9a06;}.cls-25,.cls-26,.cls-28,.cls-38,.cls-5,.cls-63,.cls-64,.cls-74{stroke-miterlimit:10;}.cls-13,.cls-19,.cls-25,.cls-26,.cls-28,.cls-5,.cls-55,.cls-58,.cls-63,.cls-64,.cls-74,.cls-77{stroke-width:0.35px;}.cls-5{fill:url(#New_Gradient_Swatch_4);}.cls-6{fill:url(#linear-gradient);}.cls-7{fill:url(#linear-gradient-2);}.cls-8{fill:url(#linear-gradient-3);}.cls-9{fill:url(#linear-gradient-4);}.cls-10{fill:url(#linear-gradient-5);}.cls-11{fill:#ad7fa8;}.cls-12{clip-path:url(#clip-path);}.cls-13{stroke:#5c3566;}.cls-13,.cls-19,.cls-36,.cls-40,.cls-55,.cls-58,.cls-61,.cls-77{stroke-linecap:round;stroke-linejoin:round;}.cls-14{fill:url(#linear-gradient-6);}.cls-15{fill:#755076;}.cls-16{fill:#5c3566;}.cls-17{fill:#babdb6;}.cls-18{clip-path:url(#clip-path-2);}.cls-19{stroke:#204a87;}.cls-20{fill:url(#linear-gradient-7);}.cls-21{fill:#888a85;}.cls-22{fill:#204a87;}.cls-23{fill:url(#New_Gradient_Swatch_4-2);}.cls-24{fill:url(#New_Gradient_Swatch_4-3);}.cls-25{stroke:#73d216;}.cls-26{fill:url(#New_Gradient_Swatch_4-4);}.cls-27{fill:url(#New_Gradient_Swatch_4-5);}.cls-28{fill:url(#New_Gradient_Swatch_4-6);}.cls-29{fill:#729fcf;}.cls-30{clip-path:url(#clip-path-3);}.cls-31{fill:url(#linear-gradient-8);}.cls-32,.cls-51{fill:#3465a4;}.cls-33{clip-path:url(#clip-path-4);}.cls-34{fill:url(#linear-gradient-9);}.cls-35{fill:url(#linear-gradient-10);}.cls-36{stroke:#fff;stroke-width:0.3px;}.cls-37{fill:#eeeeec;}.cls-38,.cls-39{fill:#fff;}.cls-38,.cls-63,.cls-64{stroke:#888a85;}.cls-38{stroke-width:0.75px;opacity:0.43;}.cls-40{stroke:#555753;}.cls-40,.cls-61{stroke-width:0.7px;}.cls-41{fill:url(#linear-gradient-11);}.cls-42{fill:url(#linear-gradient-12);}.cls-43{fill:url(#linear-gradient-13);}.cls-44{fill:url(#linear-gradient-14);}.cls-45{clip-path:url(#clip-path-5);}.cls-46{fill:url(#linear-gradient-15);}.cls-47{clip-path:url(#clip-path-6);}.cls-48{fill:url(#linear-gradient-16);}.cls-49{clip-path:url(#clip-path-7);}.cls-50{fill:url(#linear-gradient-17);}.cls-51{opacity:0.47;}.cls-52{clip-path:url(#clip-path-8);}.cls-53{fill:url(#linear-gradient-18);}.cls-54{opacity:0.62;}.cls-55{stroke:#729fcf;}.cls-56{clip-path:url(#clip-path-9);}.cls-57{fill:url(#linear-gradient-19);}.cls-58{stroke:#ad7fa8;}.cls-59{fill:url(#linear-gradient-20);}.cls-60{fill:url(#linear-gradient-21);}.cls-61{stroke:#2e3436;}.cls-62{fill:url(#linear-gradient-22);}.cls-63{fill:url(#linear-gradient-23);}.cls-64{fill:url(#linear-gradient-24);}.cls-65{fill:url(#linear-gradient-25);}.cls-66{fill:url(#linear-gradient-26);}.cls-67{fill:url(#linear-gradient-27);}.cls-68{fill:url(#linear-gradient-28);}.cls-69{fill:#555753;}.cls-70{fill:url(#linear-gradient-29);}.cls-71{fill:url(#linear-gradient-30);}.cls-72{fill:url(#linear-gradient-31);}.cls-73{fill:url(#linear-gradient-32);}.cls-74{fill:url(#New_Gradient_Swatch_4-7);}.cls-75{fill:#fce94f;}.cls-76{clip-path:url(#clip-path-10);}.cls-77{stroke:#c4a000;}.cls-78{fill:url(#linear-gradient-33);}.cls-79{fill:#edd400;}.cls-80{fill:#c4a000;}.cls-81{fill:url(#linear-gradient-34);}.cls-82{fill:url(#linear-gradient-35);}.cls-83{fill:url(#linear-gradient-36);}.cls-84{fill:url(#linear-gradient-37);}.cls-85{fill:url(#linear-gradient-38);}.cls-86{fill:url(#linear-gradient-39);}.cls-87{fill:url(#linear-gradient-40);}.cls-88{fill:url(#linear-gradient-41);}</style><style
       id="style45970">.cls-1{fill:url(#radial-gradient);}.cls-2,.cls-26{fill:#204a87;}.cls-3{fill:url(#linear-gradient);}.cls-4{fill:url(#linear-gradient-2);}.cls-5{fill:#babdb6;}.cls-6{fill:url(#linear-gradient-3);}.cls-11,.cls-14,.cls-15,.cls-20,.cls-21,.cls-24,.cls-28,.cls-31,.cls-32,.cls-7,.cls-9{fill:none;}.cls-16,.cls-7,.cls-9{stroke:#d0dfef;}.cls-11,.cls-16,.cls-26,.cls-28,.cls-7{stroke-miterlimit:10;}.cls-11,.cls-14,.cls-15,.cls-16,.cls-20,.cls-21,.cls-24,.cls-26,.cls-28,.cls-7,.cls-9{stroke-width:0.35px;}.cls-8{fill:url(#linear-gradient-4);}.cls-14,.cls-15,.cls-20,.cls-21,.cls-24,.cls-31,.cls-32,.cls-9{stroke-linecap:round;stroke-linejoin:round;}.cls-10{fill:url(#linear-gradient-5);}.cls-11,.cls-24{stroke:#729fcf;}.cls-12{fill:url(#linear-gradient-6);}.cls-13{fill:url(#linear-gradient-7);}.cls-14,.cls-26,.cls-28{stroke:#3465a4;}.cls-15{stroke:url(#New_Gradient_Swatch_2);}.cls-16,.cls-27{fill:#729fcf;}.cls-17{fill:url(#linear-gradient-8);}.cls-18{fill:url(#linear-gradient-9);}.cls-19{fill:url(#New_Gradient_Swatch_2-2);}.cls-20{stroke:url(#New_Gradient_Swatch_2-3);}.cls-21{stroke:url(#New_Gradient_Swatch_2-4);}.cls-22{fill:url(#linear-gradient-10);}.cls-23{fill:url(#linear-gradient-11);}.cls-25{fill:url(#linear-gradient-12);}.cls-29{fill:url(#linear-gradient-13);}.cls-30{opacity:0.3;}.cls-31{stroke:#fff;stroke-width:1.5px;}.cls-32{stroke:#8ae234;stroke-width:0.7px;}.cls-33{fill:url(#radial-gradient-2);}.cls-34{fill:url(#radial-gradient-3);}.cls-35{fill:url(#radial-gradient-4);}.cls-36{fill:url(#radial-gradient-5);}.cls-37{fill:url(#radial-gradient-6);}.cls-38{fill:url(#radial-gradient-7);}.cls-39{fill:url(#radial-gradient-8);}.cls-40{fill:url(#radial-gradient-9);}.cls-41{fill:url(#radial-gradient-10);}.cls-42{fill:url(#radial-gradient-11);}.cls-43{fill:url(#radial-gradient-12);}.cls-44{fill:url(#radial-gradient-13);}.cls-45{fill:url(#radial-gradient-14);}.cls-46{fill:url(#radial-gradient-15);}.cls-47{fill:url(#radial-gradient-16);}</style><linearGradient
       xlink:href="#linearGradient31615"
       id="linearGradient1"
       gradientUnits="userSpaceOnUse"
       gradientTransform="matrix(1.1245264,-0.29235211,0.29238268,1.1244088,47.126399,26.973958)"
       x1="7.59835"
       y1="7.6808586"
       x2="12.40363"
       y2="12.335973" /></defs><g
     id="layer7"><path
       style="fill:#f5a789;fill-opacity:1;stroke:#f09d7d;stroke-width:0.313537;stroke-dasharray:none;stroke-opacity:1"
       d="m 11.477392,38.780716 c -0.213461,-0.179597 -0.253866,-0.272046 -0.253866,-0.580841 0,-0.720356 0.652867,-1.618104 2.182401,-3.000987 1.035878,-0.93656 1.244941,-1.216829 1.754115,-2.35153 0.399025,-0.889234 0.566041,-1.586159 0.694355,-2.897407 0.117992,-1.205772 -0.0086,-1.979477 -0.474687,-2.901805 -0.402494,-0.796441 -0.807919,-1.240656 -1.633925,-1.790262 -0.684444,-0.455416 -1.348986,-0.679376 -1.675741,-0.56475 -0.190029,0.06666 -0.42981,0.36249 -0.432129,0.533139 -0.0037,0.275342 -0.67979,1.47735 -1.038469,1.846402 -0.6786923,0.698324 -1.6820203,0.941242 -2.7431873,0.66416 -0.456741,-0.11926 -0.547923,-0.121445 -0.742588,-0.01779 -0.122049,0.06499 -0.368993,0.196544 -0.548765,0.292338 -0.410816,0.218908 -0.624434,0.219659 -0.899662,0.0032 -0.304387,-0.239429 -0.30013,-0.667534 0.0095,-0.955526 0.322398,-0.299866 1.115862,-0.683628 1.531167,-0.740552 0.203288,-0.02786 0.637116,0.0095 1.021827,0.08794 0.367696,0.075 0.765419,0.112044 0.88382,0.08233 0.244402,-0.06134 0.9227653,-0.777296 1.0893853,-1.149766 0.06091,-0.136188 0.149901,-0.404087 0.197774,-0.595378 0.04787,-0.191291 0.249666,-0.590323 0.44844,-0.886739 0.198767,-0.296416 0.332152,-0.557011 0.296409,-0.579099 -0.145787,-0.0901 -2.3111583,-0.820471 -2.8355493,-0.956417 -0.650689,-0.168684 -0.879943,-0.340048 -0.879943,-0.657745 0,-0.31478 0.236605,-0.570679 0.577569,-0.624666 0.254922,-0.04036 1.858426,0.304618 2.8746593,0.618457 0.245021,0.07567 0.269229,0.0695 0.218222,-0.05565 -0.342235,-0.839783 -0.60851,-1.899542 -0.860636,-3.425216 -0.221992,-1.343371 -0.6736843,-1.991285 -1.7417983,-2.498497 -0.695748,-0.33039 -0.902996,-0.554354 -0.902996,-0.975857 0,-0.477783 0.671102,-0.515736 1.710074,-0.09671 0.8677723,0.349981 1.2796443,0.747467 1.7064353,1.646849 0.355155,0.74841 0.50076,1.255149 0.703561,2.448481 0.156166,0.918911 0.443795,1.867314 0.749833,2.47246 0.219294,0.433606 0.868836,1.190207 1.223026,1.424599 0.171876,0.113741 0.723512,0.600652 1.225864,1.082023 0.502351,0.481371 0.936165,0.875221 0.964033,0.875221 0.02787,0 0.05067,-0.110515 0.05067,-0.245589 0,-0.135073 0.16858,-0.992526 0.374622,-1.905449 0.514604,-2.280088 0.642444,-3.176688 0.57558,-4.03683 C 16.808372,17.487141 16.626721,16.946724 15.955343,15.62595 15.114268,13.971337 14.597922,13.35655 13.78133,13.037458 13.290504,12.84566 12.580342,12.366679 11.708634,11.639489 11.317422,11.313138 10.833882,10.933661 10.634101,10.796208 9.9938567,10.355709 8.7303347,9.7216693 7.9129757,9.4307373 c -1.158594,-0.412392 -1.454928,-0.636413 -2.775638,-2.098328 -0.761426,-0.842837 -0.86939,-1.100869 -0.602545,-1.440101 0.469258,-0.59657 1.113709,-0.286102 1.960409,0.944435 0.384454,0.558736 0.900867,0.89389 2.335539,1.515769 0.703396,0.304896 1.5509623,0.71832 1.8834773,0.91872 0.332514,0.200399 0.615614,0.351762 0.629112,0.33636 0.03235,-0.03692 -0.173312,-1.318553 -0.295781,-1.843219 -0.150853,-0.646274 -0.366954,-1.085178 -1.016892,-2.065336 -0.8441003,-1.272959 -0.9939473,-1.783134 -0.7769043,-2.645091 0.155902,-0.619116 0.678494,-0.807609 1.0921743,-0.39393 0.210037,0.210041 0.252868,0.356232 0.220614,0.753035 -0.02529,0.311105 0.162537,0.764144 0.658074,1.587243 0.839562,1.39453 1.232185,2.425992 1.235345,3.245391 0.0017,0.441359 0.304156,1.583247 0.550011,2.0764927 0.288982,0.579785 0.521759,0.80151 1.555203,1.481366 0.961336,0.632419 1.302522,0.957801 1.829123,1.744398 0.536822,0.801864 0.765503,1.236842 1.221452,2.323339 l 0.434159,1.034576 0.456546,-0.8578 c 0.510529,-0.959231 1.144989,-2.813581 1.30161,-3.804246 0.131207,-0.829915 0.07365,-1.850922 -0.121092,-2.148139 C 19.606042,9.9721593 18.895295,9.3853033 18.107529,8.7915493 17.319764,8.1977933 16.529873,7.5381323 16.352215,7.3256353 16.174557,7.1131373 15.806526,6.4908523 15.534368,5.9427803 15.262209,5.3947083 14.8873,4.7052393 14.70124,4.4106283 c -0.636546,-1.007888 -0.702727,-1.374436 -0.321837,-1.782491 0.203172,-0.217666 0.599556,-0.245752 0.863104,-0.06116 0.09978,0.06989 0.233129,0.315041 0.304035,0.558949 0.09385,0.322846 0.263917,0.587254 0.661985,1.029231 0.518518,0.57571 0.575988,0.689181 0.791945,1.563626 0.138118,0.55926 0.544544,1.010984 1.2319,1.369198 0.942368,0.491114 1.518492,0.936078 2.082144,1.60813 l 0.221183,0.263719 0.13836,-0.473965 c 0.219736,-0.752727 0.132129,-1.529906 -0.285947,-2.536711 -0.39463,-0.95034 -0.551592,-1.607639 -0.622293,-2.60593 -0.0558,-0.787849 0.01212,-1.064138 0.348201,-1.416423 0.309252,-0.324168 0.815334,-0.282412 0.972225,0.08022 0.03491,0.08068 0.08893,0.573673 0.120047,1.095548 0.04735,0.794022 0.112139,1.118444 0.397026,1.988059 0.187243,0.571558 0.364914,1.192235 0.394823,1.379283 l 0.05438,0.340087 0.340562,-0.275364 c 0.187309,-0.15145 0.656162,-0.499427 1.041895,-0.773282 0.871937,-0.619038 1.122462,-0.881912 2.022762,-2.12247 0.395203,-0.544564 0.760803,-1.017396 0.812444,-1.050737 0.18282,-0.118031 0.417782,-0.06039 0.646319,0.158566 0.179443,0.171917 0.231314,0.297002 0.230957,0.556941 -7.43e-4,0.522013 -0.153232,0.958812 -0.491574,1.407858 -0.170964,0.226902 -0.441302,0.61974 -0.600752,0.872972 -0.2534,0.402441 -0.408058,0.531041 -1.22813,1.021199 -1.165181,0.696429 -1.97222,1.285842 -2.237845,1.63439 -0.580308,0.761465 -0.940305,1.8565227 -1.294796,3.9385777 -0.29767,1.74832 -0.681923,2.998189 -1.335869,4.345213 -0.23875,0.491788 -0.451041,0.929893 -0.471756,0.973565 -0.02072,0.04367 0.160696,-0.09412 0.403135,-0.306195 0.631027,-0.552008 1.520881,-1.009581 3.81504,-1.961739 0.983432,-0.40816 2.122101,-1.114365 2.344804,-1.454254 0.197028,-0.3007 0.500547,-1.279791 0.560544,-1.8082 0.102968,-0.90684 0.214498,-1.120615 1.310138,-2.5112137 0.640004,-0.8123 0.843176,-1.271709 1.003466,-2.26902 0.221851,-1.380348 0.575044,-1.895957 1.09776,-1.602565 0.493599,0.277051 0.531159,0.716029 0.18049,2.109449 -0.305275,1.213042 -0.672764,1.964596 -1.325605,2.7109987 -0.614965,0.703097 -0.717474,0.89182 -0.866602,1.595428 -0.167993,0.792617 -0.180901,0.768373 0.317746,0.596813 1.184365,-0.407481 1.55752,-0.776568 2.736091,-2.7062527 0.734562,-1.202705 1.119479,-1.52514 1.659025,-1.389723 0.316757,0.0795 0.488514,0.536157 0.335871,0.892989 -0.06309,0.147487 -0.234215,0.379545 -0.380277,0.515687 -0.146062,0.1361407 -0.396311,0.5074347 -0.556109,0.8250977 -0.411576,0.818171 -0.901815,1.476889 -1.603055,2.153968 -0.677475,0.654135 -0.952761,0.814491 -1.968613,1.146732 -0.834603,0.272961 -1.006644,0.382491 -1.815216,1.155657 -0.85378,0.816394 -1.121716,0.971839 -2.35153,1.364258 -1.311404,0.418456 -3.322663,1.449379 -4.082743,2.092718 -0.796181,0.673898 -1.374079,1.409598 -1.820716,2.317884 -0.841918,1.712138 -1.198648,4.300079 -0.822189,5.964685 l 0.09872,0.436528 0.631895,-0.55852 c 1.598736,-1.413092 2.491366,-2.287652 3.277742,-3.211389 1.407567,-1.653434 2.425801,-2.495452 3.449,-2.852112 0.311663,-0.108638 0.656111,-0.145723 1.304954,-0.140496 0.78034,0.0063 0.934692,-0.01724 1.34472,-0.204955 0.606513,-0.277671 0.884372,-0.519242 1.626376,-1.413976 1.157483,-1.395733 2.140337,-2.12726 3.008087,-2.238885 0.628559,-0.08086 0.989755,-0.323731 1.226883,-0.824978 0.112555,-0.237922 0.204645,-0.467007 0.204645,-0.509078 0,-0.04207 0.07695,-0.174323 0.171009,-0.293894 0.138737,-0.176377 0.239943,-0.217401 0.536313,-0.217401 0.7331,0 0.912433,0.600976 0.442455,1.482743 -0.400886,0.752146 -0.725329,1.004671 -2.013951,1.567525 -1.599877,0.698808 -1.789669,0.823247 -2.240354,1.468923 -0.213129,0.305339 -0.646635,0.82119 -0.963347,1.146334 l -0.57584,0.591171 0.56578,0.264523 c 0.925795,0.432844 1.164518,0.492302 1.963685,0.489082 0.847497,-0.0034 1.590194,-0.135731 2.321749,-0.413637 0.330594,-0.125588 0.571276,-0.169706 0.720917,-0.132149 0.545532,0.13692 0.620935,0.905352 0.119111,1.213843 -0.145025,0.08915 -0.412198,0.201657 -0.59372,0.250009 -0.181521,0.04835 -0.534251,0.184481 -0.783843,0.302509 -0.724432,0.342568 -1.62275,0.353488 -2.697339,0.03279 -0.462478,-0.138023 -0.960922,-0.313031 -1.107653,-0.388909 -0.146731,-0.07588 -0.569302,-0.24278 -0.939046,-0.370894 -0.599874,-0.207853 -0.804963,-0.235697 -1.904662,-0.258593 l -1.232401,-0.02566 -0.537775,0.264239 c -0.578913,0.284454 -1.463042,1.132338 -2.284217,2.190573 -0.40607,0.523299 -0.420182,0.557194 -0.247529,0.594558 0.1007,0.02179 0.684338,0.135115 1.296974,0.251829 0.668025,0.127268 1.285628,0.297995 1.542953,0.426527 0.51409,0.256786 0.902075,0.233726 1.527565,-0.09079 0.537507,-0.278868 0.73621,-0.268918 1.448721,0.07254 0.327452,0.156928 0.742787,0.329491 0.922967,0.383474 0.624298,0.187044 0.865484,0.70213 0.552463,1.17986 -0.211475,0.322752 -0.476344,0.34429 -1.278263,0.103944 -0.980518,-0.293874 -1.252205,-0.330656 -1.650405,-0.223432 -0.188748,0.05082 -0.343178,0.110366 -0.343178,0.132315 0,0.136025 0.731658,1.467994 0.997332,1.815626 0.44896,0.587457 0.872709,0.859849 2.050749,1.318251 0.564626,0.219708 1.09372,0.466598 1.175765,0.548643 0.08779,0.08779 0.149175,0.269546 0.149175,0.441709 0,0.605427 -0.650806,0.894743 -1.196393,0.531857 -0.136141,-0.09055 -0.563129,-0.260825 -0.948863,-0.378384 -0.385733,-0.117559 -0.88027,-0.310433 -1.098972,-0.42861 -0.599508,-0.323949 -1.320558,-1.147308 -1.745208,-1.992838 -0.562125,-1.119258 -1.072211,-1.817682 -1.589167,-2.175933 -0.271191,-0.187935 -0.475644,-0.237124 -1.427626,-0.343468 -1.838296,-0.205353 -1.890174,-0.194794 -2.815132,0.572959 -1.157589,0.960847 -2.090886,2.378351 -2.381811,3.617529 -0.280746,1.195823 -0.725519,2.588592 -1.001976,3.1376 -0.420844,0.835744 -0.702019,1.195223 -1.882574,2.406855 -0.619421,0.635725 -1.335252,1.438527 -1.590743,1.784003 -0.255492,0.345476 -0.525324,0.651466 -0.599624,0.679978 -0.07431,0.02851 -0.314857,0.05184 -0.534565,0.05184 -0.309387,0 -0.456724,-0.04817 -0.653329,-0.213609 z"
       id="path6-7" /></g><g
     id="layer9"
     transform="translate(-1309.5618,73.539106)"><g
       id="g3454-2-6"
       transform="translate(1308.9057,-73.922651)"><circle
         transform="matrix(1.1610577,0,0,1.1682692,-32.536141,-4.620063)"
         id="path12848-3-7-14"
         style="color:#000000;display:inline;overflow:visible;visibility:visible;fill:#000000;fill-opacity:1;fill-rule:nonzero;stroke:#ffffff;stroke-width:0.858621;stroke-linecap:butt;stroke-linejoin:miter;stroke-miterlimit:4;stroke-dasharray:none;stroke-dashoffset:0;stroke-opacity:1;marker:none;enable-background:accumulate"
         cx="58.386818"
         cy="34.059895"
         r="10.505587" /><g
         transform="matrix(1.1610577,0,0,1.1682692,-32.4775,-4.325031)"
         id="g12842-4-8-2"><path
           d="m 60.644083,33.585798 c 0.302378,1.16285 -0.395271,2.35062 -1.55824,2.652969 -1.162971,0.30234 -2.350869,-0.395229 -2.653248,-1.558069 -0.302378,-1.16285 0.395269,-2.35062 1.558239,-2.65298 1.16297,-0.30235 2.35087,0.39523 2.653249,1.55808 z m -4.004929,-6.7562 c -0.67444,0.17534 -1.076228,0.8594 -0.90087,1.53377 l 0.514362,1.97807 c -0.04439,0.23464 -0.0699,0.44734 -0.185652,0.5356 -0.09237,0.0704 -0.253897,0.0725 -0.428374,0.0708 l -1.917415,-1.12597 c -0.606999,-0.35645 -1.393528,-0.15197 -1.750016,0.45496 -0.356487,0.60694 -0.151985,1.39339 0.455013,1.74984 l 1.869481,1.09782 c 0.10405,0.1674 0.173668,0.32087 0.156741,0.44658 -0.017,0.12623 -0.117672,0.25887 -0.263261,0.39334 l -2.054366,0.53409 c -0.674441,0.17534 -1.076228,0.8594 -0.90087,1.53378 0.175358,0.674359 0.85949,1.076109 1.533932,0.900769 l 1.978278,-0.5143 c 0.234662,0.0444 0.447381,0.0699 0.535659,0.18563 0.07044,0.0924 0.0725,0.25387 0.07076,0.42832 l -1.12609,1.91721 c -0.356488,0.60695 -0.151986,1.39339 0.455013,1.74984 0.607,0.35645 1.393527,0.15197 1.750016,-0.45496 l 1.097936,-1.86929 c 0.167418,-0.1041 0.320895,-0.17366 0.446635,-0.15673 0.126242,0.017 0.258888,0.11767 0.393376,0.26324 l 0.534145,2.05415 c 0.175358,0.67437 0.859492,1.07612 1.533932,0.90078 0.674441,-0.17535 1.07623,-0.8594 0.900871,-1.53378 l -0.514362,-1.97807 c 0.0444,-0.23463 0.0699,-0.44733 0.185652,-0.5356 0.09237,-0.0704 0.253899,-0.0725 0.428366,-0.0707 l 1.917417,1.12597 c 0.606999,0.35645 1.393527,0.15197 1.750015,-0.45497 0.356486,-0.60694 0.151986,-1.39338 -0.455013,-1.74983 l -1.86947,-1.097779 c -0.104038,-0.1674 -0.173668,-0.32086 -0.15674,-0.44659 0.017,-0.12623 0.117673,-0.25886 0.263262,-0.39333 l 2.054363,-0.5341 c 0.674441,-0.17533 1.07623,-0.8594 0.900873,-1.53376 -0.175363,-0.67438 -0.859494,-1.07612 -1.533934,-0.90078 l -1.978277,0.51431 c -0.234665,-0.0444 -0.447385,-0.0699 -0.535661,-0.18563 -0.07045,-0.0924 -0.0725,-0.25388 -0.07076,-0.42833 l 1.126086,-1.91722 c 0.356487,-0.60693 0.151985,-1.39337 -0.455013,-1.74983 -0.607,-0.35645 -1.393529,-0.15197 -1.750017,0.45497 l -1.097935,1.86929 c -0.167422,0.10398 -0.320893,0.17365 -0.446634,0.15672 -0.12624,-0.017 -0.258889,-0.11766 -0.393375,-0.26324 l -0.534146,-2.0542 c -0.175358,-0.67436 -0.859491,-1.07611 -1.533932,-0.90077 z"
           style="color:#000000;display:inline;overflow:visible;visibility:visible;fill:none;stroke:#000000;stroke-width:0.858621;stroke-miterlimit:4;stroke-dasharray:none;stroke-opacity:1;marker:none;enable-background:accumulate"
           id="path31611-2-8-3" /><path
           id="path3643-8-5-22"
           style="color:#000000;display:inline;overflow:visible;visibility:visible;fill:url(#linearGradient1);fill-opacity:1;fill-rule:evenodd;stroke:#888a85;stroke-width:0.429311;stroke-miterlimit:4;stroke-dasharray:none;marker:none;enable-background:accumulate"
           d="m 60.478593,33.088038 c 0.302378,1.16285 -0.39527,2.35062 -1.55824,2.65297 -1.16297,0.302339 -2.350869,-0.39523 -2.653248,-1.55807 -0.302378,-1.16285 0.395269,-2.35064 1.55824,-2.65298 1.162969,-0.30235 2.350869,0.39523 2.653248,1.55808 z m -4.004929,-6.7562 c -0.67444,0.17534 -1.076229,0.8594 -0.900871,1.53378 l 0.514363,1.97807 c -0.04439,0.23463 -0.0699,0.44732 -0.185652,0.53559 -0.09238,0.0704 -0.253896,0.0725 -0.428373,0.0708 l -1.917416,-1.12601 c -0.606999,-0.35645 -1.393528,-0.15197 -1.750015,0.45496 -0.356487,0.60695 -0.151986,1.39339 0.455013,1.74984 l 1.86948,1.09782 c 0.104045,0.16741 0.173672,0.32086 0.156744,0.44658 -0.017,0.12623 -0.117674,0.25886 -0.263262,0.39334 l -2.054366,0.53409 c -0.674442,0.17534 -1.076229,0.8594 -0.900871,1.53378 0.175358,0.674359 0.85949,1.076109 1.533932,0.900769 l 1.978278,-0.514309 c 0.234661,0.0444 0.447381,0.0699 0.535659,0.185629 0.07044,0.0924 0.07251,0.25387 0.07076,0.42833 l -1.126089,1.91721 c -0.356488,0.60695 -0.151987,1.39339 0.455013,1.74984 0.606999,0.35645 1.393527,0.15197 1.750015,-0.45497 l 1.097936,-1.86928 c 0.167418,-0.1041 0.320895,-0.17365 0.446635,-0.15673 0.126241,0.017 0.258888,0.11767 0.393375,0.26324 l 0.534146,2.05415 c 0.175357,0.67437 0.859492,1.07612 1.533932,0.90078 0.674441,-0.17535 1.07623,-0.85941 0.900871,-1.53378 l -0.514362,-1.97807 c 0.04439,-0.23463 0.0699,-0.44733 0.185651,-0.53561 0.09238,-0.0704 0.253901,-0.0725 0.428366,-0.0708 l 1.917417,1.12598 c 0.606999,0.35645 1.393528,0.15197 1.750016,-0.45497 0.356486,-0.60694 0.151984,-1.39338 -0.455014,-1.749829 l -1.869474,-1.09778 c -0.104038,-0.1674 -0.173668,-0.32086 -0.156741,-0.44659 0.017,-0.12623 0.117673,-0.25886 0.263261,-0.39334 l 2.054366,-0.53409 c 0.674441,-0.17533 1.07623,-0.8594 0.900871,-1.53376 -0.175357,-0.67438 -0.859492,-1.07612 -1.533933,-0.90079 l -1.978277,0.51432 c -0.234664,-0.0444 -0.447385,-0.0699 -0.535661,-0.18563 -0.07044,-0.0924 -0.07251,-0.25388 -0.07076,-0.42833 l 1.12609,-1.91722 c 0.356487,-0.60693 0.151985,-1.39338 -0.455013,-1.74983 -0.607001,-0.35645 -1.393529,-0.15197 -1.750016,0.45497 l -1.097937,1.86928 c -0.167421,0.10409 -0.320892,0.17366 -0.446634,0.15672 -0.126241,-0.017 -0.258889,-0.11765 -0.393375,-0.26323 l -0.534145,-2.0542 c -0.175362,-0.67431 -0.859496,-1.07606 -1.533937,-0.90072 z" /></g></g></g></svg>
